<?xml version="1.0" encoding="UTF-8"?>
<!DOCTYPE svg PUBLIC "-//W3C//DTD SVG 1.1//EN" "http://www.w3.org/Graphics/SVG/1.1/DTD/svg11.dtd">
<svg xmlns="http://www.w3.org/2000/svg" version="1.1" width="3335px" height="3335px" style="shape-rendering:geometricPrecision; text-rendering:geometricPrecision; image-rendering:optimizeQuality; fill-rule:evenodd; clip-rule:evenodd" xmlns:xlink="http://www.w3.org/1999/xlink">
<g><path style="opacity:1" fill="#000000" d="M -0.5,-0.5 C 1111.17,-0.5 2222.83,-0.5 3334.5,-0.5C 3334.5,1111.17 3334.5,2222.83 3334.5,3334.5C 2222.83,3334.5 1111.17,3334.5 -0.5,3334.5C -0.5,2222.83 -0.5,1111.17 -0.5,-0.5 Z"/></g>
<g><path style="opacity:1" fill="#090909" d="M 1198.5,446.5 C 1238.94,445.595 1276.27,455.762 1310.5,477C 1325.9,490.063 1338.74,505.23 1349,522.5C 1476.51,741.506 1603.51,960.839 1730,1180.5C 1741.9,1194.7 1757.07,1203.53 1775.5,1207C 1782.42,1208.54 1789.42,1209.54 1796.5,1210C 2027.5,1210.67 2258.5,1210.67 2489.5,1210C 2510.48,1209.34 2529.48,1203.01 2546.5,1191C 2551.08,1187.09 2554.92,1182.59 2558,1177.5C 2681.49,962.506 2805.49,747.84 2930,533.5C 2953.68,496.194 2987.18,472.361 3030.5,462C 3050.25,455.028 3070.25,454.028 3090.5,459C 3111.79,464.528 3131.13,473.861 3148.5,487C 3166.26,505.573 3176.76,527.74 3180,553.5C 3182.37,598.996 3173.7,642.33 3154,683.5C 3020.92,914.663 2887.59,1145.66 2754,1376.5C 2737.41,1406.01 2721.08,1435.67 2705,1465.5C 2693.75,1483 2682.75,1500.67 2672,1518.5C 2547.67,1734.17 2423.33,1949.83 2299,2165.5C 2287.32,2184.86 2274.66,2203.53 2261,2221.5C 2247.46,2237.02 2230.96,2248.19 2211.5,2255C 2153.14,2277.25 2097.48,2271.91 2044.5,2239C 2029.48,2225.99 2016.65,2211.16 2006,2194.5C 1998.08,2182.33 1990.42,2170 1983,2157.5C 1858.67,1942.17 1734.33,1726.83 1610,1511.5C 1598.1,1497.3 1582.93,1488.47 1564.5,1485C 1557.58,1483.46 1550.58,1482.46 1543.5,1482C 1321.83,1481.33 1100.17,1481.33 878.5,1482C 855.909,1482.64 835.909,1489.97 818.5,1504C 816,1507.17 813.5,1510.33 811,1513.5C 682.399,1737.09 553.399,1960.43 424,2183.5C 400.32,2220.81 366.82,2244.64 323.5,2255C 303.752,2261.97 283.752,2262.97 263.5,2258C 242.207,2252.47 222.873,2243.14 205.5,2230C 189.15,2213.47 178.984,2193.64 175,2170.5C 170.444,2114.39 182.444,2062.06 211,2013.5C 344.333,1782.83 477.667,1552.17 611,1321.5C 629.068,1289.75 646.735,1257.75 664,1225.5C 675.25,1208 686.25,1190.33 697,1172.5C 820.495,957.506 944.495,742.84 1069,528.5C 1076.6,516.305 1084.93,504.638 1094,493.5C 1109.88,475.637 1129.38,463.47 1152.5,457C 1167.75,452.518 1183.08,449.018 1198.5,446.5 Z"/></g>
<g><path style="opacity:1" fill="#0f0f0f" d="M 1199.5,466.5 C 1260.71,466.013 1307.21,491.679 1339,543.5C 1462.76,755.342 1585.76,967.676 1708,1180.5C 1725,1202.1 1747.17,1215.6 1774.5,1221C 1785.38,1223.36 1796.38,1224.7 1807.5,1225C 2031.17,1225.67 2254.83,1225.67 2478.5,1225C 2503.2,1224.8 2526.53,1219.13 2548.5,1208C 2561.29,1200.21 2571.79,1190.05 2580,1177.5C 2697.75,973.003 2815.75,768.67 2934,564.5C 2961.74,521.185 3000.91,494.018 3051.5,483C 3063.06,481.706 3074.39,482.706 3085.5,486C 3147.97,510.761 3170.8,555.928 3154,621.5C 3148.82,644.529 3140.82,666.529 3130,687.5C 3004.92,904.663 2879.59,1121.66 2754,1338.5C 2732.83,1376.18 2712.16,1414.18 2692,1452.5C 2679,1472.83 2666,1493.17 2653,1513.5C 2532.67,1722.17 2412.33,1930.83 2292,2139.5C 2279.9,2160.03 2266.57,2179.7 2252,2198.5C 2218.93,2233.95 2178.09,2250.45 2129.5,2248C 2081.17,2241.11 2044.01,2217.28 2018,2176.5C 2008.42,2161.67 1999.08,2146.67 1990,2131.5C 1870.25,1923.67 1750.25,1716 1630,1508.5C 1612.93,1488.71 1591.43,1476.21 1565.5,1471C 1554.63,1468.6 1543.63,1467.27 1532.5,1467C 1318.5,1466.33 1104.5,1466.33 890.5,1467C 867.052,1467.16 844.719,1472.16 823.5,1482C 809.149,1489.35 797.649,1499.85 789,1513.5C 666.253,1726.66 543.253,1939.66 420,2152.5C 392.257,2195.81 353.091,2222.98 302.5,2234C 290.941,2235.29 279.608,2234.29 268.5,2231C 242.688,2221.83 222.188,2206 207,2183.5C 196.465,2163.77 192.798,2142.77 196,2120.5C 199.102,2093.76 206.102,2068.09 217,2043.5C 224.492,2028.51 232.492,2013.85 241,1999.5C 364.333,1786.17 487.667,1572.83 611,1359.5C 633.254,1319.33 655.254,1278.99 677,1238.5C 690,1218.17 703,1197.83 716,1177.5C 826.667,985.5 937.333,793.5 1048,601.5C 1060.91,578.666 1074.58,556.333 1089,534.5C 1115.8,495.676 1152.63,473.009 1199.5,466.5 Z"/></g>
<g><path style="opacity:1" fill="#151515" d="M 1207.5,481.5 C 1259,485.16 1298.84,508.493 1327,551.5C 1448.42,759.342 1569.09,967.676 1689,1176.5C 1696.75,1188.91 1706.58,1199.41 1718.5,1208C 1745.54,1226.85 1775.54,1237.18 1808.5,1239C 2031.5,1239.67 2254.5,1239.67 2477.5,1239C 2513.14,1237.57 2545.14,1226.23 2573.5,1205C 2582.5,1197.34 2590,1188.51 2596,1178.5C 2711.16,978.173 2826.83,778.173 2943,578.5C 2966.44,543.404 2998.28,519.238 3038.5,506C 3059.28,499.686 3078.61,502.686 3096.5,515C 3110.62,524.123 3122.46,535.623 3132,549.5C 3136.37,557.986 3139.04,566.986 3140,576.5C 3141.41,615.517 3132.75,652.184 3114,686.5C 2991.25,899.663 2868.25,1112.66 2745,1325.5C 2724.75,1363.01 2704.75,1400.67 2685,1438.5C 2669.79,1463.71 2653.79,1488.37 2637,1512.5C 2517.33,1719.83 2397.67,1927.17 2278,2134.5C 2268.15,2152.21 2256.82,2168.87 2244,2184.5C 2212.63,2219.6 2173.46,2235.44 2126.5,2232C 2092.85,2225.26 2064.69,2209.1 2042,2183.5C 2033.84,2173.19 2026.18,2162.52 2019,2151.5C 1895.08,1938 1771.41,1724.33 1648,1510.5C 1640.5,1500.33 1631.67,1491.5 1621.5,1484C 1594.48,1465.11 1564.48,1454.77 1531.5,1453C 1318.17,1452.33 1104.83,1452.33 891.5,1453C 853.881,1454.16 820.547,1466.49 791.5,1490C 784.578,1496.92 778.411,1504.42 773,1512.5C 652.839,1721.49 532.172,1930.16 411,2138.5C 387.582,2173.56 355.749,2197.73 315.5,2211C 294.719,2217.31 275.386,2214.31 257.5,2202C 243.35,2192.85 231.517,2181.35 222,2167.5C 217.628,2159.01 214.962,2150.01 214,2140.5C 212.587,2101.48 221.254,2064.82 240,2030.5C 369.333,1806.5 498.667,1582.5 628,1358.5C 646.667,1323.17 665.333,1287.83 684,1252.5C 699.502,1227.49 715.502,1202.83 732,1178.5C 837.667,995.167 943.333,811.833 1049,628.5C 1064.5,601.502 1080.5,574.835 1097,548.5C 1123.69,509.407 1160.52,487.074 1207.5,481.5 Z"/></g>
<g><path style="opacity:1" fill="#1b1b1b" d="M 3052.5,520.5 C 3049.31,523.03 3046.15,525.696 3043,528.5C 3040.3,533.338 3037.47,538.005 3034.5,542.5C 3013.91,549.923 2996.07,561.59 2981,577.5C 2973.29,586.21 2965.95,595.21 2959,604.5C 2946.17,624.165 2933.83,644.165 2922,664.5C 2822.92,836.997 2723.59,1009.33 2624,1181.5C 2617.01,1191.97 2609.18,1201.8 2600.5,1211C 2558.18,1248.67 2508.51,1268.34 2451.5,1270C 2245.83,1270.67 2040.17,1270.67 1834.5,1270C 1795.17,1269.67 1759.17,1258.67 1726.5,1237C 1711.61,1227.44 1697.27,1217.11 1683.5,1206C 1671.61,1194.7 1661.77,1181.86 1654,1167.5C 1537.67,965.833 1421.33,764.167 1305,562.5C 1282.08,530.454 1250.92,512.454 1211.5,508.5C 1178.89,510.89 1151.39,523.89 1129,547.5C 1120.89,556.938 1113.56,566.938 1107,577.5C 1094.59,600.661 1081.92,623.661 1069,646.5C 966.495,822.84 864.495,999.506 763,1176.5C 752.109,1193.39 740.443,1209.72 728,1225.5C 718.938,1238.9 710.272,1252.57 702,1266.5C 676.063,1316.04 650.396,1365.71 625,1415.5C 509,1616.17 393,1816.83 277,2017.5C 264.397,2038.37 255.397,2060.71 250,2084.5C 246.542,2101.61 246.709,2118.61 250.5,2135.5C 248.155,2140.03 245.989,2144.7 244,2149.5C 242.75,2154.42 242.25,2159.42 242.5,2164.5C 235.099,2154.14 230.933,2142.47 230,2129.5C 229.257,2093.14 237.924,2059.14 256,2027.5C 378.414,1815 501.081,1602.67 624,1390.5C 648.157,1343.52 672.824,1296.85 698,1250.5C 714.085,1225.99 730.419,1201.66 747,1177.5C 862.667,976.833 978.333,776.167 1094,575.5C 1112.73,540.431 1140.57,515.597 1177.5,501C 1210.85,490.557 1242.18,494.89 1271.5,514C 1288.58,525.08 1303.08,538.914 1315,555.5C 1320.92,564.331 1326.58,573.331 1332,582.5C 1448.27,784.425 1564.93,986.092 1682,1187.5C 1696.86,1204.7 1714.36,1218.53 1734.5,1229C 1770.53,1249.12 1809.2,1257.45 1850.5,1254C 2057.51,1254.96 2264.51,1254.63 2471.5,1253C 2515.46,1250.58 2554.12,1235.25 2587.5,1207C 2594.04,1200.13 2600.21,1192.96 2606,1185.5C 2711,1003.5 2816,821.5 2921,639.5C 2935.65,612.857 2952.65,587.857 2972,564.5C 2993.98,541.093 3020.81,526.426 3052.5,520.5 Z"/></g>
<g><path style="opacity:1" fill="#222222" d="M 3034.5,542.5 C 3030.66,550.199 3026.32,557.532 3021.5,564.5C 3020.28,563.535 3018.95,563.702 3017.5,565C 3003.52,573.966 2991.02,584.799 2980,597.5C 2968.6,611.973 2957.93,626.973 2948,642.5C 2843.67,823.167 2739.33,1003.83 2635,1184.5C 2618.09,1209.08 2596.92,1229.25 2571.5,1245C 2533.56,1268.65 2492.23,1281.65 2447.5,1284C 2251.84,1285.64 2056.18,1285.98 1860.5,1285C 1815.58,1286.69 1773.91,1276.02 1735.5,1253C 1713.05,1239.22 1691.72,1223.88 1671.5,1207C 1662.2,1198.04 1654.04,1188.21 1647,1177.5C 1549.59,1008.34 1451.92,839.337 1354,670.5C 1336.6,639.419 1319.6,608.086 1303,576.5C 1288.19,553.193 1268.02,536.193 1242.5,525.5C 1241.89,525.624 1241.56,525.957 1241.5,526.5C 1231.37,515.071 1218.7,510.904 1203.5,514C 1194.78,515.855 1187.45,520.022 1181.5,526.5C 1181.26,525.903 1180.76,525.57 1180,525.5C 1152.61,536.03 1131.61,554.03 1117,579.5C 1100.18,611.819 1082.84,643.819 1065,675.5C 967.601,843.242 870.601,1011.24 774,1179.5C 761.973,1197.55 748.973,1214.88 735,1231.5C 705.203,1277.08 679.536,1325.08 658,1375.5C 650.177,1391.81 641.843,1407.81 633,1423.5C 516,1626.17 399,1828.83 282,2031.5C 269.471,2054.42 262.637,2078.92 261.5,2105C 261.515,2108.58 262.182,2111.74 263.5,2114.5C 259.403,2121.7 255.07,2128.7 250.5,2135.5C 246.709,2118.61 246.542,2101.61 250,2084.5C 255.397,2060.71 264.397,2038.37 277,2017.5C 393,1816.83 509,1616.17 625,1415.5C 650.396,1365.71 676.063,1316.04 702,1266.5C 710.272,1252.57 718.938,1238.9 728,1225.5C 740.443,1209.72 752.109,1193.39 763,1176.5C 864.495,999.506 966.495,822.84 1069,646.5C 1081.92,623.661 1094.59,600.661 1107,577.5C 1113.56,566.938 1120.89,556.938 1129,547.5C 1151.39,523.89 1178.89,510.89 1211.5,508.5C 1250.92,512.454 1282.08,530.454 1305,562.5C 1421.33,764.167 1537.67,965.833 1654,1167.5C 1661.77,1181.86 1671.61,1194.7 1683.5,1206C 1697.27,1217.11 1711.61,1227.44 1726.5,1237C 1759.17,1258.67 1795.17,1269.67 1834.5,1270C 2040.17,1270.67 2245.83,1270.67 2451.5,1270C 2508.51,1268.34 2558.18,1248.67 2600.5,1211C 2609.18,1201.8 2617.01,1191.97 2624,1181.5C 2723.59,1009.33 2822.92,836.997 2922,664.5C 2933.83,644.165 2946.17,624.165 2959,604.5C 2965.95,595.21 2973.29,586.21 2981,577.5C 2996.07,561.59 3013.91,549.923 3034.5,542.5 Z"/></g>
<g><path style="opacity:1" fill="#000000" d="M 1241.5,526.5 C 1244.2,530.856 1246.87,535.189 1249.5,539.5C 1372.47,753.114 1495.8,966.447 1619.5,1179.5C 1626.66,1193.17 1634.33,1206.5 1642.5,1219.5C 1645.93,1226.03 1649.6,1232.37 1653.5,1238.5C 1661.26,1252.37 1669.26,1266.03 1677.5,1279.5C 1682.22,1288.61 1687.22,1297.61 1692.5,1306.5C 1702.81,1307.5 1713.15,1307.83 1723.5,1307.5C 1734.5,1307.5 1745.5,1307.5 1756.5,1307.5C 1763.17,1307.5 1769.83,1307.5 1776.5,1307.5C 1790.5,1307.5 1804.5,1307.5 1818.5,1307.5C 2034.83,1307.5 2251.17,1307.5 2467.5,1307.5C 2482.17,1307.5 2496.83,1307.5 2511.5,1307.5C 2519.83,1307.5 2528.17,1307.5 2536.5,1307.5C 2555.5,1307.67 2574.5,1307.5 2593.5,1307C 2599.97,1295.89 2606.31,1284.72 2612.5,1273.5C 2617.92,1265.66 2622.59,1257.33 2626.5,1248.5C 2639,1228.17 2651,1207.5 2662.5,1186.5C 2777.34,988.835 2891.67,790.835 3005.5,592.5C 3011.34,583.5 3016.67,574.167 3021.5,564.5C 3026.32,557.532 3030.66,550.199 3034.5,542.5C 3037.47,538.005 3040.3,533.338 3043,528.5C 3046.15,525.696 3049.31,523.03 3052.5,520.5C 3073.46,512.184 3091.29,516.518 3106,533.5C 3109.74,539.276 3111.57,545.61 3111.5,552.5C 3111.75,557.58 3111.25,562.58 3110,567.5C 3108.01,572.3 3105.84,576.966 3103.5,581.5C 3098.93,588.296 3094.6,595.296 3090.5,602.5C 3086.14,610.517 3081.8,618.517 3077.5,626.5C 2961.01,826.804 2845.01,1027.47 2729.5,1228.5C 2675.24,1322.03 2621.24,1415.7 2567.5,1509.5C 2439.26,1730.97 2311.26,1952.63 2183.5,2174.5C 2180.53,2179.14 2177.53,2183.81 2174.5,2188.5C 2163.03,2199.87 2149.36,2203.37 2133.5,2199C 2126.58,2196.87 2120.25,2193.7 2114.5,2189.5C 2110.04,2185.38 2106.37,2180.72 2103.5,2175.5C 1976.22,1954.24 1848.56,1733.24 1720.5,1512.5C 1713.34,1498.83 1705.67,1485.5 1697.5,1472.5C 1694.07,1465.97 1690.4,1459.63 1686.5,1453.5C 1679.32,1439.8 1671.66,1426.47 1663.5,1413.5C 1658.18,1404.19 1652.85,1394.86 1647.5,1385.5C 1637.19,1384.5 1626.85,1384.17 1616.5,1384.5C 1605.5,1384.5 1594.5,1384.5 1583.5,1384.5C 1576.83,1384.5 1570.17,1384.5 1563.5,1384.5C 1549.5,1384.5 1535.5,1384.5 1521.5,1384.5C 1314.5,1384.5 1107.5,1384.5 900.5,1384.5C 885.833,1384.5 871.167,1384.5 856.5,1384.5C 848.167,1384.5 839.833,1384.5 831.5,1384.5C 812.488,1384.17 793.488,1384.5 774.5,1385.5C 768.488,1396.19 762.488,1406.86 756.5,1417.5C 751.515,1426.13 746.515,1434.8 741.5,1443.5C 729.584,1463.66 717.917,1484 706.5,1504.5C 586.665,1710.83 467.331,1917.5 348.5,2124.5C 342.664,2133.5 337.331,2142.83 332.5,2152.5C 327.678,2159.47 323.344,2166.8 319.5,2174.5C 316.53,2179 313.697,2183.66 311,2188.5C 307.855,2191.3 304.688,2193.97 301.5,2196.5C 277.221,2205.93 258.388,2199.59 245,2177.5C 243.686,2173.25 242.853,2168.91 242.5,2164.5C 242.25,2159.42 242.75,2154.42 244,2149.5C 245.989,2144.7 248.155,2140.03 250.5,2135.5C 255.07,2128.7 259.403,2121.7 263.5,2114.5C 267.862,2106.48 272.195,2098.48 276.5,2090.5C 397.657,1882.2 518.323,1673.53 638.5,1464.5C 693.098,1370.3 747.431,1275.97 801.5,1181.5C 925.083,968.005 1048.42,754.338 1171.5,540.5C 1174.33,535.519 1177.66,530.852 1181.5,526.5C 1187.45,520.022 1194.78,515.855 1203.5,514C 1218.7,510.904 1231.37,515.071 1241.5,526.5 Z"/></g>
<g><path style="opacity:1" fill="#282828" d="M 1181.5,526.5 C 1177.66,530.852 1174.33,535.519 1171.5,540.5C 1157.76,546.662 1145.93,555.995 1136,568.5C 1131.75,573.991 1127.75,579.658 1124,585.5C 1109.04,615.712 1093.71,645.712 1078,675.5C 980.667,844.167 883.333,1012.83 786,1181.5C 771.241,1200.68 756.241,1219.68 741,1238.5C 709.793,1285.57 683.793,1335.57 663,1388.5C 653.51,1408.15 643.51,1427.48 633,1446.5C 521.667,1639.17 410.333,1831.83 299,2024.5C 286.64,2044.88 279.14,2066.88 276.5,2090.5C 272.195,2098.48 267.862,2106.48 263.5,2114.5C 262.182,2111.74 261.515,2108.58 261.5,2105C 262.637,2078.92 269.471,2054.42 282,2031.5C 399,1828.83 516,1626.17 633,1423.5C 641.843,1407.81 650.177,1391.81 658,1375.5C 679.536,1325.08 705.203,1277.08 735,1231.5C 748.973,1214.88 761.973,1197.55 774,1179.5C 870.601,1011.24 967.601,843.242 1065,675.5C 1082.84,643.819 1100.18,611.819 1117,579.5C 1131.61,554.03 1152.61,536.03 1180,525.5C 1180.76,525.57 1181.26,525.903 1181.5,526.5 Z"/></g>
<g><path style="opacity:1" fill="#282828" d="M 3021.5,564.5 C 3016.67,574.167 3011.34,583.5 3005.5,592.5C 3005.57,592.062 3005.4,591.728 3005,591.5C 2984.31,610.521 2966.97,632.187 2953,656.5C 2850.59,834.33 2747.92,1012 2645,1189.5C 2626.61,1216.23 2603.44,1237.73 2575.5,1254C 2530.5,1281.89 2481.5,1296.89 2428.5,1299C 2238.17,1299.67 2047.83,1299.67 1857.5,1299C 1820.46,1298.32 1785.46,1289.66 1752.5,1273C 1718.62,1253.78 1686.95,1231.44 1657.5,1206C 1649.25,1197.75 1641.75,1188.92 1635,1179.5C 1539.92,1014.34 1444.59,849.337 1349,684.5C 1330.81,650.783 1313.14,616.783 1296,582.5C 1284.78,563.439 1269.28,549.106 1249.5,539.5C 1246.87,535.189 1244.2,530.856 1241.5,526.5C 1241.56,525.957 1241.89,525.624 1242.5,525.5C 1268.02,536.193 1288.19,553.193 1303,576.5C 1319.6,608.086 1336.6,639.419 1354,670.5C 1451.92,839.337 1549.59,1008.34 1647,1177.5C 1654.04,1188.21 1662.2,1198.04 1671.5,1207C 1691.72,1223.88 1713.05,1239.22 1735.5,1253C 1773.91,1276.02 1815.58,1286.69 1860.5,1285C 2056.18,1285.98 2251.84,1285.64 2447.5,1284C 2492.23,1281.65 2533.56,1268.65 2571.5,1245C 2596.92,1229.25 2618.09,1209.08 2635,1184.5C 2739.33,1003.83 2843.67,823.167 2948,642.5C 2957.93,626.973 2968.6,611.973 2980,597.5C 2991.02,584.799 3003.52,573.966 3017.5,565C 3018.95,563.702 3020.28,563.535 3021.5,564.5 Z"/></g>
<g><path style="opacity:1" fill="#fefffe" d="M 1206.5,533.5 C 1216.9,531.449 1224.4,535.116 1229,544.5C 1379.7,805.037 1530.2,1065.7 1680.5,1326.5C 1988.83,1327.83 2297.17,1327.83 2605.5,1326.5C 2756.53,1065.3 2907.37,803.963 3058,542.5C 3064.44,536.326 3071.94,534.826 3080.5,538C 3090.05,542.6 3093.55,550.1 3091,560.5C 3088.27,566.293 3085.27,571.96 3082,577.5C 2774.41,1109.67 2467.08,1642 2160,2174.5C 2154.68,2180.17 2148.18,2182 2140.5,2180C 2134.51,2178.59 2129.35,2175.76 2125,2171.5C 1969.63,1902.96 1814.47,1634.3 1659.5,1365.5C 1360.83,1364.33 1062.17,1364.17 763.5,1365C 607.288,1634.59 451.454,1904.42 296,2174.5C 289.559,2180.67 282.059,2182.17 273.5,2179C 263.952,2174.4 260.452,2166.9 263,2156.5C 265.73,2150.71 268.73,2145.04 272,2139.5C 578.733,1609.09 885.066,1078.43 1191,547.5C 1194.49,540.834 1199.66,536.168 1206.5,533.5 Z"/></g>
<g><path style="opacity:1" fill="#2e2e2e" d="M 1171.5,540.5 C 1048.42,754.338 925.083,968.005 801.5,1181.5C 801.19,1180.26 800.69,1180.26 800,1181.5C 796.667,1186.17 793.333,1190.83 790,1195.5C 763.116,1222.04 740.449,1251.7 722,1284.5C 712.823,1300.85 704.156,1317.52 696,1334.5C 679.756,1378.99 660.256,1421.99 637.5,1463.5C 637.624,1464.11 637.957,1464.44 638.5,1464.5C 518.323,1673.53 397.657,1882.2 276.5,2090.5C 279.14,2066.88 286.64,2044.88 299,2024.5C 410.333,1831.83 521.667,1639.17 633,1446.5C 643.51,1427.48 653.51,1408.15 663,1388.5C 683.793,1335.57 709.793,1285.57 741,1238.5C 756.241,1219.68 771.241,1200.68 786,1181.5C 883.333,1012.83 980.667,844.167 1078,675.5C 1093.71,645.712 1109.04,615.712 1124,585.5C 1127.75,579.658 1131.75,573.991 1136,568.5C 1145.93,555.995 1157.76,546.662 1171.5,540.5 Z"/></g>
<g><path style="opacity:1" fill="#2e2e2e" d="M 1249.5,539.5 C 1269.28,549.106 1284.78,563.439 1296,582.5C 1313.14,616.783 1330.81,650.783 1349,684.5C 1444.59,849.337 1539.92,1014.34 1635,1179.5C 1641.75,1188.92 1649.25,1197.75 1657.5,1206C 1686.95,1231.44 1718.62,1253.78 1752.5,1273C 1785.46,1289.66 1820.46,1298.32 1857.5,1299C 2047.83,1299.67 2238.17,1299.67 2428.5,1299C 2481.5,1296.89 2530.5,1281.89 2575.5,1254C 2603.44,1237.73 2626.61,1216.23 2645,1189.5C 2747.92,1012 2850.59,834.33 2953,656.5C 2966.97,632.187 2984.31,610.521 3005,591.5C 3005.4,591.728 3005.57,592.062 3005.5,592.5C 2891.67,790.835 2777.34,988.835 2662.5,1186.5C 2662.19,1185.26 2661.69,1185.26 2661,1186.5C 2642.07,1216.76 2617.24,1240.93 2586.5,1259C 2549.43,1281.74 2509.76,1297.91 2467.5,1307.5C 2251.17,1307.5 2034.83,1307.5 1818.5,1307.5C 1784.24,1299.71 1752.58,1285.87 1723.5,1266C 1689.05,1243.17 1656.88,1217.33 1627,1188.5C 1624.75,1185.67 1622.75,1182.67 1621,1179.5C 1620.31,1178.26 1619.81,1178.26 1619.5,1179.5C 1495.8,966.447 1372.47,753.114 1249.5,539.5 Z"/></g>
<g><path style="opacity:1" fill="#1b1b1b" d="M 3111.5,552.5 C 3122.46,569.121 3126.63,587.454 3124,607.5C 3120.96,636.618 3112.29,663.951 3098,689.5C 2980.59,893.33 2862.92,1097 2745,1300.5C 2720.84,1347.48 2696.18,1394.15 2671,1440.5C 2654.91,1465.01 2638.58,1489.34 2622,1513.5C 2501.67,1722.17 2381.33,1930.83 2261,2139.5C 2247.07,2165.09 2227.91,2185.93 2203.5,2202C 2157.76,2228.47 2113.76,2225.81 2071.5,2194C 2052.01,2177.85 2036.18,2158.68 2024,2136.5C 1904.67,1929.83 1785.33,1723.17 1666,1516.5C 1654.45,1497.95 1639.29,1483.12 1620.5,1472C 1600.7,1459.1 1579.36,1449.43 1556.5,1443C 1534.34,1439.24 1512,1437.58 1489.5,1438C 1291.83,1437.04 1094.16,1437.38 896.5,1439C 846.729,1441.81 804.563,1460.97 770,1496.5C 766.667,1501.17 763.333,1505.83 760,1510.5C 650.747,1699.34 541.747,1888.34 433,2077.5C 418.682,2103.81 402.015,2128.47 383,2151.5C 360.725,2175.26 333.558,2190.26 301.5,2196.5C 304.688,2193.97 307.855,2191.3 311,2188.5C 313.697,2183.66 316.53,2179 319.5,2174.5C 340.531,2166.9 358.698,2154.9 374,2138.5C 381.379,2130.12 388.379,2121.46 395,2112.5C 407.835,2092.83 420.168,2072.83 432,2052.5C 537,1870.5 642,1688.5 747,1506.5C 760.968,1486.2 778.468,1469.7 799.5,1457C 835.179,1434.44 874.179,1422.78 916.5,1422C 1112.83,1421.33 1309.17,1421.33 1505.5,1422C 1544.89,1422.18 1580.89,1433.18 1613.5,1455C 1628.39,1464.56 1642.73,1474.89 1656.5,1486C 1663.41,1492.24 1669.57,1499.07 1675,1506.5C 1799.59,1721.34 1923.92,1936.34 2048,2151.5C 2071.35,2184.43 2103.18,2202.76 2143.5,2206.5C 2183.42,2203.05 2214.92,2185.05 2238,2152.5C 2361.92,1938.33 2485.59,1724 2609,1509.5C 2620.28,1493.22 2631.95,1477.22 2644,1461.5C 2651.92,1449.33 2659.58,1437 2667,1424.5C 2691.53,1378.12 2715.53,1331.45 2739,1284.5C 2851.41,1089.34 2964.08,894.337 3077,699.5C 3089.6,678.627 3098.6,656.293 3104,632.5C 3107.46,615.395 3107.29,598.395 3103.5,581.5C 3105.84,576.966 3108.01,572.3 3110,567.5C 3111.25,562.58 3111.75,557.58 3111.5,552.5 Z"/></g>
<g><path style="opacity:1" fill="#222222" d="M 3103.5,581.5 C 3107.29,598.395 3107.46,615.395 3104,632.5C 3098.6,656.293 3089.6,678.627 3077,699.5C 2964.08,894.337 2851.41,1089.34 2739,1284.5C 2715.53,1331.45 2691.53,1378.12 2667,1424.5C 2659.58,1437 2651.92,1449.33 2644,1461.5C 2631.95,1477.22 2620.28,1493.22 2609,1509.5C 2485.59,1724 2361.92,1938.33 2238,2152.5C 2214.92,2185.05 2183.42,2203.05 2143.5,2206.5C 2103.18,2202.76 2071.35,2184.43 2048,2151.5C 1923.92,1936.34 1799.59,1721.34 1675,1506.5C 1669.57,1499.07 1663.41,1492.24 1656.5,1486C 1642.73,1474.89 1628.39,1464.56 1613.5,1455C 1580.89,1433.18 1544.89,1422.18 1505.5,1422C 1309.17,1421.33 1112.83,1421.33 916.5,1422C 874.179,1422.78 835.179,1434.44 799.5,1457C 778.468,1469.7 760.968,1486.2 747,1506.5C 642,1688.5 537,1870.5 432,2052.5C 420.168,2072.83 407.835,2092.83 395,2112.5C 388.379,2121.46 381.379,2130.12 374,2138.5C 358.698,2154.9 340.531,2166.9 319.5,2174.5C 323.344,2166.8 327.678,2159.47 332.5,2152.5C 333.721,2153.46 335.054,2153.3 336.5,2152C 350.477,2143.03 362.977,2132.2 374,2119.5C 385.403,2105.03 396.07,2090.03 406,2074.5C 516.253,1884.33 626.253,1694 736,1503.5C 752.724,1479.77 773.558,1460.61 798.5,1446C 836.151,1422.67 877.151,1410.01 921.5,1408C 1107.49,1406.36 1293.49,1406.03 1479.5,1407C 1524.42,1405.31 1566.09,1415.98 1604.5,1439C 1626.95,1452.78 1648.28,1468.12 1668.5,1485C 1681.3,1497.13 1691.8,1510.96 1700,1526.5C 1802.41,1704.33 1905.08,1882 2008,2059.5C 2022.41,2086.66 2037.08,2113.66 2052,2140.5C 2067.03,2163.93 2087.53,2180.59 2113.5,2190.5C 2114.11,2190.38 2114.44,2190.04 2114.5,2189.5C 2120.25,2193.7 2126.58,2196.87 2133.5,2199C 2149.36,2203.37 2163.03,2199.87 2174.5,2188.5C 2174.74,2189.1 2175.24,2189.43 2176,2189.5C 2201.36,2178.82 2221.36,2161.82 2236,2138.5C 2253.41,2106.01 2271.08,2073.67 2289,2041.5C 2391,1864.83 2493,1688.17 2595,1511.5C 2606.56,1494.6 2618.9,1478.27 2632,1462.5C 2641.83,1448.17 2651.17,1433.51 2660,1418.5C 2685.91,1368.43 2711.24,1318.1 2736,1267.5C 2848,1073.5 2960,879.5 3072,685.5C 3084.53,662.58 3091.36,638.08 3092.5,612C 3092.48,608.424 3091.82,605.258 3090.5,602.5C 3094.6,595.296 3098.93,588.296 3103.5,581.5 Z"/></g>
<g><path style="opacity:1" fill="#000000" d="M 1210.5,589.5 C 1352.68,835.352 1495.01,1081.19 1637.5,1327C 1353.5,1327.83 1069.5,1327.67 785.5,1326.5C 927.431,1080.97 1069.1,835.303 1210.5,589.5 Z"/></g>
<g><path style="opacity:1" fill="#282828" d="M 3090.5,602.5 C 3091.82,605.258 3092.48,608.424 3092.5,612C 3091.36,638.08 3084.53,662.58 3072,685.5C 2960,879.5 2848,1073.5 2736,1267.5C 2711.24,1318.1 2685.91,1368.43 2660,1418.5C 2651.17,1433.51 2641.83,1448.17 2632,1462.5C 2618.9,1478.27 2606.56,1494.6 2595,1511.5C 2493,1688.17 2391,1864.83 2289,2041.5C 2271.08,2073.67 2253.41,2106.01 2236,2138.5C 2221.36,2161.82 2201.36,2178.82 2176,2189.5C 2175.24,2189.43 2174.74,2189.1 2174.5,2188.5C 2177.53,2183.81 2180.53,2179.14 2183.5,2174.5C 2183.43,2174.94 2183.6,2175.27 2184,2175.5C 2202.9,2165.27 2217.9,2150.93 2229,2132.5C 2245.47,2099.55 2262.47,2066.88 2280,2034.5C 2378.92,1863.66 2477.59,1692.66 2576,1521.5C 2581.17,1512.49 2586.84,1503.82 2593,1495.5C 2615.04,1471.13 2634.37,1444.8 2651,1416.5C 2671.68,1380.48 2689.68,1343.15 2705,1304.5C 2713.41,1287.34 2722.08,1270.34 2731,1253.5C 2839.33,1065.83 2947.67,878.167 3056,690.5C 3067.87,670.72 3075.04,649.386 3077.5,626.5C 3081.8,618.517 3086.14,610.517 3090.5,602.5 Z"/></g>
<g><path style="opacity:1" fill="#2e2e2e" d="M 3077.5,626.5 C 3075.04,649.386 3067.87,670.72 3056,690.5C 2947.67,878.167 2839.33,1065.83 2731,1253.5C 2722.08,1270.34 2713.41,1287.34 2705,1304.5C 2689.68,1343.15 2671.68,1380.48 2651,1416.5C 2634.37,1444.8 2615.04,1471.13 2593,1495.5C 2586.84,1503.82 2581.17,1512.49 2576,1521.5C 2477.59,1692.66 2378.92,1863.66 2280,2034.5C 2262.47,2066.88 2245.47,2099.55 2229,2132.5C 2217.9,2150.93 2202.9,2165.27 2184,2175.5C 2183.6,2175.27 2183.43,2174.94 2183.5,2174.5C 2311.26,1952.63 2439.26,1730.97 2567.5,1509.5C 2581.95,1493.26 2596.79,1476.6 2612,1459.5C 2635.27,1427.98 2655.27,1394.31 2672,1358.5C 2681.53,1335.58 2690.86,1312.58 2700,1289.5C 2709.38,1269.06 2719.55,1249.06 2730.5,1229.5C 2730.38,1228.89 2730.04,1228.56 2729.5,1228.5C 2845.01,1027.47 2961.01,826.804 3077.5,626.5 Z"/></g>
<g><path style="opacity:1" fill="#494949" d="M 1244.5,688.5 C 1222.17,688.5 1199.83,688.5 1177.5,688.5C 1188.39,669.058 1199.56,649.725 1211,630.5C 1222.43,649.697 1233.6,669.031 1244.5,688.5 Z"/></g>
<g><path style="opacity:1" fill="#3d3d3d" d="M 1177.5,688.5 C 1199.83,688.5 1222.17,688.5 1244.5,688.5C 1251.42,699.996 1258.08,711.663 1264.5,723.5C 1228.82,711.501 1193.15,711.501 1157.5,723.5C 1163.41,711.337 1170.08,699.67 1177.5,688.5 Z"/></g>
<g><path style="opacity:1" fill="#343434" d="M 1264.5,723.5 C 1276.59,742.669 1287.92,762.335 1298.5,782.5C 1298.19,783.738 1297.69,783.738 1297,782.5C 1272.65,737.911 1235.48,720.744 1185.5,731C 1167.18,735.985 1152.02,745.818 1140,760.5C 1133.59,768.314 1127.92,776.647 1123,785.5C 1122.31,786.738 1121.81,786.738 1121.5,785.5C 1133,764.498 1145,743.831 1157.5,723.5C 1193.15,711.501 1228.82,711.501 1264.5,723.5 Z"/></g>
<g><path style="opacity:1" fill="#2e2e2e" d="M 1298.5,782.5 C 1375.74,915.301 1452.74,1048.3 1529.5,1181.5C 1528.9,1181.74 1528.57,1182.24 1528.5,1183C 1531.3,1190.95 1532.13,1199.12 1531,1207.5C 1525.77,1226.1 1519.77,1244.43 1513,1262.5C 1505.53,1283.13 1492.03,1298.13 1472.5,1307.5C 1298.17,1307.5 1123.83,1307.5 949.5,1307.5C 930.676,1298.5 917.509,1284.17 910,1264.5C 902.872,1245.78 896.539,1226.78 891,1207.5C 889.867,1199.12 890.7,1190.95 893.5,1183C 893.43,1182.24 893.097,1181.74 892.5,1181.5C 968.848,1049.46 1045.18,917.465 1121.5,785.5C 1121.81,786.738 1122.31,786.738 1123,785.5C 1127.92,776.647 1133.59,768.314 1140,760.5C 1152.02,745.818 1167.18,735.985 1185.5,731C 1235.48,720.744 1272.65,737.911 1297,782.5C 1297.69,783.738 1298.19,783.738 1298.5,782.5 Z"/></g>
<g><path style="opacity:1" fill="#282828" d="M 1209.5,739.5 C 1235.48,740.073 1256.64,750.406 1273,770.5C 1282.79,783.625 1291.79,797.292 1300,811.5C 1371.08,935.33 1442.41,1059 1514,1182.5C 1517.28,1191.57 1518.28,1200.9 1517,1210.5C 1512.11,1228.84 1505.44,1246.51 1497,1263.5C 1487.26,1281.23 1472.43,1292.06 1452.5,1296C 1444.25,1297.71 1435.92,1298.71 1427.5,1299C 1283.17,1299.67 1138.83,1299.67 994.5,1299C 959.315,1300.18 934.481,1285.02 920,1253.5C 914.006,1239.18 909.006,1224.52 905,1209.5C 903.493,1199.42 904.827,1189.75 909,1180.5C 979,1059.17 1049,937.833 1119,816.5C 1129.19,797.442 1141.36,779.775 1155.5,763.5C 1170.41,748.377 1188.41,740.377 1209.5,739.5 Z"/></g>
<g><path style="opacity:1" fill="#222222" d="M 1204.5,752.5 C 1224.48,751.435 1241.81,757.602 1256.5,771C 1270.17,786.178 1282.01,802.678 1292,820.5C 1362.25,942.003 1432.25,1063.67 1502,1185.5C 1505.59,1195.14 1505.92,1204.81 1503,1214.5C 1498.33,1231.17 1491,1246.51 1481,1260.5C 1470.58,1271.96 1457.75,1279.13 1442.5,1282C 1431.58,1283.84 1420.58,1284.84 1409.5,1285C 1270.82,1285.97 1132.16,1285.63 993.5,1284C 963.024,1282.53 941.524,1268.03 929,1240.5C 924.743,1230.73 921.076,1220.73 918,1210.5C 915.735,1197.9 918.068,1186.23 925,1175.5C 997.081,1050.34 1069.41,925.336 1142,800.5C 1150.02,787.479 1159.85,775.979 1171.5,766C 1181.46,758.677 1192.46,754.177 1204.5,752.5 Z"/></g>
<g><path style="opacity:1" fill="#1c1c1c" d="M 1201.5,766.5 C 1218.78,764.651 1234.11,769.151 1247.5,780C 1254.41,786.236 1260.57,793.069 1266,800.5C 1276.4,816.569 1286.4,832.903 1296,849.5C 1359.08,959.33 1422.41,1069 1486,1178.5C 1492.12,1189.67 1493.45,1201.34 1490,1213.5C 1484.47,1230.07 1475.3,1244.24 1462.5,1256C 1448.25,1265.15 1432.59,1269.82 1415.5,1270C 1279.17,1270.67 1142.83,1270.67 1006.5,1270C 976.571,1270.13 954.405,1257.3 940,1231.5C 936.447,1224.39 933.447,1217.06 931,1209.5C 929.247,1198.59 930.914,1188.26 936,1178.5C 1006.25,1057.66 1076.25,936.664 1146,815.5C 1153.94,801.886 1163.77,789.72 1175.5,779C 1183.33,772.915 1192,768.748 1201.5,766.5 Z"/></g>
<g><path style="opacity:1" fill="#151515" d="M 1205.5,783.5 C 1221.65,782.914 1235.32,788.414 1246.5,800C 1259.27,815.035 1270.44,831.202 1280,848.5C 1343.08,958.33 1406.41,1068 1470,1177.5C 1478.03,1190.68 1478.36,1204.01 1471,1217.5C 1459.39,1237.74 1441.89,1249.24 1418.5,1252C 1406.86,1253.1 1395.2,1253.77 1383.5,1254C 1259.83,1254.95 1136.16,1254.62 1012.5,1253C 983.3,1252.34 962.134,1239.17 949,1213.5C 944.286,1201.09 945.286,1189.09 952,1177.5C 1016.67,1065.5 1081.33,953.5 1146,841.5C 1154.95,825.881 1165.45,811.381 1177.5,798C 1185.66,790.752 1195,785.919 1205.5,783.5 Z"/></g>
<g><path style="opacity:1" fill="#0f0f0f" d="M 1208.5,800.5 C 1219.02,800.933 1228.36,804.433 1236.5,811C 1246.66,821.166 1255.49,832.333 1263,844.5C 1326.67,954.5 1390.33,1064.5 1454,1174.5C 1466.73,1197 1461.89,1214.83 1439.5,1228C 1425.72,1235.09 1411.06,1238.76 1395.5,1239C 1272.5,1239.67 1149.5,1239.67 1026.5,1239C 1008.27,1238.95 991.606,1233.95 976.5,1224C 959.834,1210.83 956.667,1195 967,1176.5C 1028.25,1071 1089.25,965.33 1150,859.5C 1157.34,846.148 1165.67,833.482 1175,821.5C 1183.7,810.25 1194.87,803.25 1208.5,800.5 Z"/></g>
<g><path style="opacity:1" fill="#090909" d="M 1209.5,821.5 C 1222.37,823.191 1232.87,829.191 1241,839.5C 1245.67,846.167 1250.33,852.833 1255,859.5C 1316,964.833 1377,1070.17 1438,1175.5C 1446.87,1189.7 1445.03,1202.2 1432.5,1213C 1416.21,1221.33 1398.87,1225.33 1380.5,1225C 1267.83,1225.67 1155.17,1225.67 1042.5,1225C 1024.58,1225.42 1007.58,1221.75 991.5,1214C 977.749,1204.49 974.916,1192.33 983,1177.5C 1042.67,1074.17 1102.33,970.833 1162,867.5C 1169.68,853.653 1179.18,841.153 1190.5,830C 1196.2,825.48 1202.53,822.647 1209.5,821.5 Z"/></g>
<g><path style="opacity:1" fill="#010101" d="M 1206.5,851.5 C 1215.93,851.051 1223.93,854.218 1230.5,861C 1239.87,872.894 1248.37,885.394 1256,898.5C 1309.08,990.997 1362.41,1083.33 1416,1175.5C 1422.71,1185.81 1421.21,1194.64 1411.5,1202C 1401.48,1207.17 1390.81,1209.84 1379.5,1210C 1267.17,1210.67 1154.83,1210.67 1042.5,1210C 1029.88,1209.81 1018.21,1206.48 1007.5,1200C 1001.81,1193.15 1000.98,1185.65 1005,1177.5C 1061.25,1080.66 1117.25,983.663 1173,886.5C 1179.63,875.067 1187.79,864.9 1197.5,856C 1200.59,854.454 1203.59,852.954 1206.5,851.5 Z"/></g>
<g><path style="opacity:1" fill="#343434" d="M 1818.5,1307.5 C 1804.5,1307.5 1790.5,1307.5 1776.5,1307.5C 1746.4,1292.28 1717.73,1274.78 1690.5,1255C 1675.17,1243 1659.83,1231 1644.5,1219C 1643.56,1218.31 1642.9,1218.47 1642.5,1219.5C 1634.33,1206.5 1626.66,1193.17 1619.5,1179.5C 1619.81,1178.26 1620.31,1178.26 1621,1179.5C 1622.75,1182.67 1624.75,1185.67 1627,1188.5C 1656.88,1217.33 1689.05,1243.17 1723.5,1266C 1752.58,1285.87 1784.24,1299.71 1818.5,1307.5 Z"/></g>
<g><path style="opacity:1" fill="#353535" d="M 801.5,1181.5 C 747.431,1275.97 693.098,1370.3 638.5,1464.5C 637.957,1464.44 637.624,1464.11 637.5,1463.5C 660.256,1421.99 679.756,1378.99 696,1334.5C 704.156,1317.52 712.823,1300.85 722,1284.5C 740.449,1251.7 763.116,1222.04 790,1195.5C 793.333,1190.83 796.667,1186.17 800,1181.5C 800.69,1180.26 801.19,1180.26 801.5,1181.5 Z"/></g>
<g><path style="opacity:1" fill="#343434" d="M 892.5,1181.5 C 893.097,1181.74 893.43,1182.24 893.5,1183C 890.7,1190.95 889.867,1199.12 891,1207.5C 896.539,1226.78 902.872,1245.78 910,1264.5C 917.509,1284.17 930.676,1298.5 949.5,1307.5C 938.167,1307.5 926.833,1307.5 915.5,1307.5C 909.007,1299.2 903.507,1290.2 899,1280.5C 892.071,1262.05 885.737,1243.38 880,1224.5C 878.663,1220.49 876.83,1216.83 874.5,1213.5C 880.072,1202.59 886.072,1191.93 892.5,1181.5 Z"/></g>
<g><path style="opacity:1" fill="#343434" d="M 1529.5,1181.5 C 1536.02,1191.87 1542.02,1202.54 1547.5,1213.5C 1544.68,1217.77 1542.51,1222.43 1541,1227.5C 1535.03,1250.74 1526.7,1273.07 1516,1294.5C 1513,1298.99 1509.84,1303.33 1506.5,1307.5C 1495.17,1307.5 1483.83,1307.5 1472.5,1307.5C 1492.03,1298.13 1505.53,1283.13 1513,1262.5C 1519.77,1244.43 1525.77,1226.1 1531,1207.5C 1532.13,1199.12 1531.3,1190.95 1528.5,1183C 1528.57,1182.24 1528.9,1181.74 1529.5,1181.5 Z"/></g>
<g><path style="opacity:1" fill="#343434" d="M 2662.5,1186.5 C 2651,1207.5 2639,1228.17 2626.5,1248.5C 2590.29,1272.11 2551.95,1291.77 2511.5,1307.5C 2496.83,1307.5 2482.17,1307.5 2467.5,1307.5C 2509.76,1297.91 2549.43,1281.74 2586.5,1259C 2617.24,1240.93 2642.07,1216.76 2661,1186.5C 2661.69,1185.26 2662.19,1185.26 2662.5,1186.5 Z"/></g>
<g><path style="opacity:1" fill="#3b3b3b" d="M 1776.5,1307.5 C 1769.83,1307.5 1763.17,1307.5 1756.5,1307.5C 1720.59,1286.77 1686.43,1263.43 1654,1237.5C 1653.6,1237.73 1653.43,1238.06 1653.5,1238.5C 1649.6,1232.37 1645.93,1226.03 1642.5,1219.5C 1642.9,1218.47 1643.56,1218.31 1644.5,1219C 1659.83,1231 1675.17,1243 1690.5,1255C 1717.73,1274.78 1746.4,1292.28 1776.5,1307.5 Z"/></g>
<g><path style="opacity:1" fill="#353535" d="M 2729.5,1228.5 C 2730.04,1228.56 2730.38,1228.89 2730.5,1229.5C 2719.55,1249.06 2709.38,1269.06 2700,1289.5C 2690.86,1312.58 2681.53,1335.58 2672,1358.5C 2655.27,1394.31 2635.27,1427.98 2612,1459.5C 2596.79,1476.6 2581.95,1493.26 2567.5,1509.5C 2621.24,1415.7 2675.24,1322.03 2729.5,1228.5 Z"/></g>
<g><path style="opacity:1" fill="#3f3f3f" d="M 874.5,1213.5 C 876.83,1216.83 878.663,1220.49 880,1224.5C 885.737,1243.38 892.071,1262.05 899,1280.5C 903.507,1290.2 909.007,1299.2 915.5,1307.5C 902.833,1307.5 890.167,1307.5 877.5,1307.5C 872.045,1291.97 866.878,1276.3 862,1260.5C 860.101,1255.6 857.935,1250.94 855.5,1246.5C 861.442,1235.24 867.775,1224.24 874.5,1213.5 Z"/></g>
<g><path style="opacity:1" fill="#3f3f3f" d="M 1547.5,1213.5 C 1554.32,1223.8 1560.66,1234.47 1566.5,1245.5C 1564.74,1247.89 1563.24,1250.55 1562,1253.5C 1556.26,1271.56 1550.42,1289.56 1544.5,1307.5C 1531.83,1307.5 1519.17,1307.5 1506.5,1307.5C 1509.84,1303.33 1513,1298.99 1516,1294.5C 1526.7,1273.07 1535.03,1250.74 1541,1227.5C 1542.51,1222.43 1544.68,1217.77 1547.5,1213.5 Z"/></g>
<g><path style="opacity:1" fill="#424242" d="M 1756.5,1307.5 C 1745.5,1307.5 1734.5,1307.5 1723.5,1307.5C 1709.01,1297.86 1694.34,1288.36 1679.5,1279C 1678.56,1278.31 1677.9,1278.47 1677.5,1279.5C 1669.26,1266.03 1661.26,1252.37 1653.5,1238.5C 1653.43,1238.06 1653.6,1237.73 1654,1237.5C 1686.43,1263.43 1720.59,1286.77 1756.5,1307.5 Z"/></g>
<g><path style="opacity:1" fill="#474747" d="M 1566.5,1245.5 C 1569.83,1251.17 1573.17,1256.83 1576.5,1262.5C 1574.19,1265.8 1572.35,1269.46 1571,1273.5C 1567.39,1284.84 1563.89,1296.17 1560.5,1307.5C 1555.17,1307.5 1549.83,1307.5 1544.5,1307.5C 1550.42,1289.56 1556.26,1271.56 1562,1253.5C 1563.24,1250.55 1564.74,1247.89 1566.5,1245.5 Z"/></g>
<g><path style="opacity:1" fill="#474747" d="M 855.5,1246.5 C 857.935,1250.94 860.101,1255.6 862,1260.5C 866.878,1276.3 872.045,1291.97 877.5,1307.5C 871.5,1307.5 865.5,1307.5 859.5,1307.5C 856.321,1292.74 851.321,1278.74 844.5,1265.5C 847.775,1258.9 851.442,1252.57 855.5,1246.5 Z"/></g>
<g><path style="opacity:1" fill="#3b3b3b" d="M 2626.5,1248.5 C 2622.59,1257.33 2617.92,1265.66 2612.5,1273.5C 2587.01,1284.66 2561.67,1295.99 2536.5,1307.5C 2528.17,1307.5 2519.83,1307.5 2511.5,1307.5C 2551.95,1291.77 2590.29,1272.11 2626.5,1248.5 Z"/></g>
<g><path style="opacity:1" fill="#4e4e4e" d="M 1576.5,1262.5 C 1584.94,1277.45 1593.61,1292.28 1602.5,1307C 1588.5,1307.5 1574.5,1307.67 1560.5,1307.5C 1563.89,1296.17 1567.39,1284.84 1571,1273.5C 1572.35,1269.46 1574.19,1265.8 1576.5,1262.5 Z"/></g>
<g><path style="opacity:1" fill="#4d4d4d" d="M 844.5,1265.5 C 851.321,1278.74 856.321,1292.74 859.5,1307.5C 846.483,1307.83 833.483,1307.5 820.5,1306.5C 828.274,1292.61 836.274,1278.94 844.5,1265.5 Z"/></g>
<g><path style="opacity:1" fill="#424242" d="M 2612.5,1273.5 C 2606.31,1284.72 2599.97,1295.89 2593.5,1307C 2574.5,1307.5 2555.5,1307.67 2536.5,1307.5C 2561.67,1295.99 2587.01,1284.66 2612.5,1273.5 Z"/></g>
<g><path style="opacity:1" fill="#4d4d4d" d="M 1723.5,1307.5 C 1713.15,1307.83 1702.81,1307.5 1692.5,1306.5C 1687.22,1297.61 1682.22,1288.61 1677.5,1279.5C 1677.9,1278.47 1678.56,1278.31 1679.5,1279C 1694.34,1288.36 1709.01,1297.86 1723.5,1307.5 Z"/></g>
<g><path style="opacity:1" fill="#000000" d="M 1702.5,1365.5 C 1996,1364.33 2289.67,1364.17 2583.5,1365C 2436.71,1618.75 2290.04,1872.58 2143.5,2126.5C 1996.73,1872.61 1849.73,1618.94 1702.5,1365.5 Z"/></g>
<g><path style="opacity:1" fill="#424242" d="M 831.5,1384.5 C 806.598,1396.47 781.598,1407.47 756.5,1417.5C 762.488,1406.86 768.488,1396.19 774.5,1385.5C 793.488,1384.5 812.488,1384.17 831.5,1384.5 Z"/></g>
<g><path style="opacity:1" fill="#3b3b3b" d="M 831.5,1384.5 C 839.833,1384.5 848.167,1384.5 856.5,1384.5C 822.465,1398.46 789.465,1414.63 757.5,1433C 752.235,1437.41 746.902,1440.91 741.5,1443.5C 746.515,1434.8 751.515,1426.13 756.5,1417.5C 781.598,1407.47 806.598,1396.47 831.5,1384.5 Z"/></g>
<g><path style="opacity:1" fill="#343434" d="M 856.5,1384.5 C 871.167,1384.5 885.833,1384.5 900.5,1384.5C 843.995,1397.75 792.995,1422.25 747.5,1458C 731.92,1472.71 718.254,1488.21 706.5,1504.5C 717.917,1484 729.584,1463.66 741.5,1443.5C 746.902,1440.91 752.235,1437.41 757.5,1433C 789.465,1414.63 822.465,1398.46 856.5,1384.5 Z"/></g>
<g><path style="opacity:1" fill="#2e2e2e" d="M 900.5,1384.5 C 1107.5,1384.5 1314.5,1384.5 1521.5,1384.5C 1554.59,1391.87 1585.25,1405.04 1613.5,1424C 1645.87,1445.78 1676.7,1469.61 1706,1495.5C 1711.06,1500.63 1715.39,1506.29 1719,1512.5C 1719.69,1513.74 1720.19,1513.74 1720.5,1512.5C 1848.56,1733.24 1976.22,1954.24 2103.5,2175.5C 2085.05,2165.89 2070.21,2152.22 2059,2134.5C 2042.68,2103.2 2026.35,2071.86 2010,2040.5C 1906.51,1860.84 1802.51,1681.51 1698,1502.5C 1693.2,1496.7 1688.03,1491.2 1682.5,1486C 1653.05,1460.56 1621.38,1438.22 1587.5,1419C 1554.53,1402.34 1519.53,1393.68 1482.5,1393C 1301.5,1392.33 1120.5,1392.33 939.5,1393C 867.354,1396.93 804.354,1422.59 750.5,1470C 738.479,1482.01 727.979,1495.18 719,1509.5C 613.253,1693.33 507.253,1877 401,2060.5C 387.026,2084.81 369.692,2106.48 349,2125.5C 348.601,2125.27 348.435,2124.94 348.5,2124.5C 467.331,1917.5 586.665,1710.83 706.5,1504.5C 718.254,1488.21 731.92,1472.71 747.5,1458C 792.995,1422.25 843.995,1397.75 900.5,1384.5 Z"/></g>
<g><path style="opacity:1" fill="#343434" d="M 1521.5,1384.5 C 1535.5,1384.5 1549.5,1384.5 1563.5,1384.5C 1593.6,1399.72 1622.27,1417.22 1649.5,1437C 1664.83,1449 1680.17,1461 1695.5,1473C 1696.44,1473.69 1697.1,1473.53 1697.5,1472.5C 1705.67,1485.5 1713.34,1498.83 1720.5,1512.5C 1720.19,1513.74 1719.69,1513.74 1719,1512.5C 1715.39,1506.29 1711.06,1500.63 1706,1495.5C 1676.7,1469.61 1645.87,1445.78 1613.5,1424C 1585.25,1405.04 1554.59,1391.87 1521.5,1384.5 Z"/></g>
<g><path style="opacity:1" fill="#3b3b3b" d="M 1563.5,1384.5 C 1570.17,1384.5 1576.83,1384.5 1583.5,1384.5C 1619.41,1405.23 1653.57,1428.57 1686,1454.5C 1686.4,1454.27 1686.57,1453.94 1686.5,1453.5C 1690.4,1459.63 1694.07,1465.97 1697.5,1472.5C 1697.1,1473.53 1696.44,1473.69 1695.5,1473C 1680.17,1461 1664.83,1449 1649.5,1437C 1622.27,1417.22 1593.6,1399.72 1563.5,1384.5 Z"/></g>
<g><path style="opacity:1" fill="#424242" d="M 1583.5,1384.5 C 1594.5,1384.5 1605.5,1384.5 1616.5,1384.5C 1631.85,1394.6 1647.35,1404.6 1663,1414.5C 1663.4,1414.27 1663.57,1413.94 1663.5,1413.5C 1671.66,1426.47 1679.32,1439.8 1686.5,1453.5C 1686.57,1453.94 1686.4,1454.27 1686,1454.5C 1653.57,1428.57 1619.41,1405.23 1583.5,1384.5 Z"/></g>
<g><path style="opacity:1" fill="#4d4d4d" d="M 1616.5,1384.5 C 1626.85,1384.17 1637.19,1384.5 1647.5,1385.5C 1652.85,1394.86 1658.18,1404.19 1663.5,1413.5C 1663.57,1413.94 1663.4,1414.27 1663,1414.5C 1647.35,1404.6 1631.85,1394.6 1616.5,1384.5 Z"/></g>
<g><path style="opacity:1" fill="#4e4e4e" d="M 1779.5,1384.5 C 1775.78,1396.83 1771.95,1409.16 1768,1421.5C 1767.14,1424.63 1765.64,1427.3 1763.5,1429.5C 1755.06,1414.55 1746.39,1399.72 1737.5,1385C 1751.5,1384.5 1765.5,1384.33 1779.5,1384.5 Z"/></g>
<g><path style="opacity:1" fill="#434343" d="M 1779.5,1384.5 C 1790.83,1384.5 1802.17,1384.5 1813.5,1384.5C 1809.47,1391.9 1805.97,1399.57 1803,1407.5C 1797.86,1423.91 1792.53,1440.24 1787,1456.5C 1786.19,1459.18 1784.69,1461.18 1782.5,1462.5C 1776.42,1451.34 1770.09,1440.34 1763.5,1429.5C 1765.64,1427.3 1767.14,1424.63 1768,1421.5C 1771.95,1409.16 1775.78,1396.83 1779.5,1384.5 Z"/></g>
<g><path style="opacity:1" fill="#3b3b3b" d="M 1813.5,1384.5 C 1820.17,1384.5 1826.83,1384.5 1833.5,1384.5C 1827.01,1392.8 1821.51,1401.8 1817,1411.5C 1810.07,1429.95 1803.74,1448.62 1798,1467.5C 1796.66,1471.51 1794.83,1475.17 1792.5,1478.5C 1788.81,1473.46 1785.47,1468.12 1782.5,1462.5C 1784.69,1461.18 1786.19,1459.18 1787,1456.5C 1792.53,1440.24 1797.86,1423.91 1803,1407.5C 1805.97,1399.57 1809.47,1391.9 1813.5,1384.5 Z"/></g>
<g><path style="opacity:1" fill="#343434" d="M 1833.5,1384.5 C 1844.83,1384.5 1856.17,1384.5 1867.5,1384.5C 1847.97,1393.87 1834.47,1408.87 1827,1429.5C 1820.23,1447.57 1814.23,1465.9 1809,1484.5C 1807.87,1492.88 1808.7,1501.05 1811.5,1509C 1811.43,1509.76 1811.1,1510.26 1810.5,1510.5C 1803.98,1500.13 1797.98,1489.46 1792.5,1478.5C 1794.83,1475.17 1796.66,1471.51 1798,1467.5C 1803.74,1448.62 1810.07,1429.95 1817,1411.5C 1821.51,1401.8 1827.01,1392.8 1833.5,1384.5 Z"/></g>
<g><path style="opacity:1" fill="#2e2e2e" d="M 1867.5,1384.5 C 2051.17,1384.5 2234.83,1384.5 2418.5,1384.5C 2432.99,1390.68 2444.16,1400.68 2452,1414.5C 2463.45,1438.18 2472.12,1462.84 2478,1488.5C 2478.74,1497.39 2476.91,1505.73 2472.5,1513.5C 2472.62,1514.11 2472.96,1514.44 2473.5,1514.5C 2393.4,1653.7 2313.07,1792.7 2232.5,1931.5C 2232.19,1930.26 2231.69,1930.26 2231,1931.5C 2204.32,1980.92 2163.82,1998.08 2109.5,1983C 2091.05,1975.22 2076.22,1963.05 2065,1946.5C 2061.67,1941.17 2058.33,1935.83 2055,1930.5C 2054.31,1929.26 2053.81,1929.26 2053.5,1930.5C 1972.52,1790.54 1891.52,1650.54 1810.5,1510.5C 1811.1,1510.26 1811.43,1509.76 1811.5,1509C 1808.7,1501.05 1807.87,1492.88 1809,1484.5C 1814.23,1465.9 1820.23,1447.57 1827,1429.5C 1834.47,1408.87 1847.97,1393.87 1867.5,1384.5 Z"/></g>
<g><path style="opacity:1" fill="#343434" d="M 2418.5,1384.5 C 2429.83,1384.5 2441.17,1384.5 2452.5,1384.5C 2459.24,1392.29 2464.74,1400.96 2469,1410.5C 2475.6,1427.95 2481.6,1445.62 2487,1463.5C 2488.48,1469.12 2490.98,1474.12 2494.5,1478.5C 2487.5,1490.5 2480.5,1502.5 2473.5,1514.5C 2472.96,1514.44 2472.62,1514.11 2472.5,1513.5C 2476.91,1505.73 2478.74,1497.39 2478,1488.5C 2472.12,1462.84 2463.45,1438.18 2452,1414.5C 2444.16,1400.68 2432.99,1390.68 2418.5,1384.5 Z"/></g>
<g><path style="opacity:1" fill="#3f3f3f" d="M 2452.5,1384.5 C 2465.17,1384.5 2477.83,1384.5 2490.5,1384.5C 2496.79,1401.3 2502.62,1418.3 2508,1435.5C 2509.09,1439.35 2510.92,1442.68 2513.5,1445.5C 2506.91,1456.34 2500.58,1467.34 2494.5,1478.5C 2490.98,1474.12 2488.48,1469.12 2487,1463.5C 2481.6,1445.62 2475.6,1427.95 2469,1410.5C 2464.74,1400.96 2459.24,1392.29 2452.5,1384.5 Z"/></g>
<g><path style="opacity:1" fill="#474747" d="M 2490.5,1384.5 C 2496.5,1384.5 2502.5,1384.5 2508.5,1384.5C 2512.37,1398.43 2517.03,1412.1 2522.5,1425.5C 2522.96,1426.3 2523.62,1426.63 2524.5,1426.5C 2520.58,1432.67 2516.91,1439 2513.5,1445.5C 2510.92,1442.68 2509.09,1439.35 2508,1435.5C 2502.62,1418.3 2496.79,1401.3 2490.5,1384.5 Z"/></g>
<g><path style="opacity:1" fill="#4e4e4e" d="M 2508.5,1384.5 C 2521.84,1384.33 2535.17,1384.5 2548.5,1385C 2540.36,1398.78 2532.36,1412.61 2524.5,1426.5C 2523.62,1426.63 2522.96,1426.3 2522.5,1425.5C 2517.03,1412.1 2512.37,1398.43 2508.5,1384.5 Z"/></g>
<g><path style="opacity:1" fill="#282828" d="M 2103.5,2175.5 C 2106.37,2180.72 2110.04,2185.38 2114.5,2189.5C 2114.44,2190.04 2114.11,2190.38 2113.5,2190.5C 2087.53,2180.59 2067.03,2163.93 2052,2140.5C 2037.08,2113.66 2022.41,2086.66 2008,2059.5C 1905.08,1882 1802.41,1704.33 1700,1526.5C 1691.8,1510.96 1681.3,1497.13 1668.5,1485C 1648.28,1468.12 1626.95,1452.78 1604.5,1439C 1566.09,1415.98 1524.42,1405.31 1479.5,1407C 1293.49,1406.03 1107.49,1406.36 921.5,1408C 877.151,1410.01 836.151,1422.67 798.5,1446C 773.558,1460.61 752.724,1479.77 736,1503.5C 626.253,1694 516.253,1884.33 406,2074.5C 396.07,2090.03 385.403,2105.03 374,2119.5C 362.977,2132.2 350.477,2143.03 336.5,2152C 335.054,2153.3 333.721,2153.46 332.5,2152.5C 337.331,2142.83 342.664,2133.5 348.5,2124.5C 348.435,2124.94 348.601,2125.27 349,2125.5C 369.692,2106.48 387.026,2084.81 401,2060.5C 507.253,1877 613.253,1693.33 719,1509.5C 727.979,1495.18 738.479,1482.01 750.5,1470C 804.354,1422.59 867.354,1396.93 939.5,1393C 1120.5,1392.33 1301.5,1392.33 1482.5,1393C 1519.53,1393.68 1554.53,1402.34 1587.5,1419C 1621.38,1438.22 1653.05,1460.56 1682.5,1486C 1688.03,1491.2 1693.2,1496.7 1698,1502.5C 1802.51,1681.51 1906.51,1860.84 2010,2040.5C 2026.35,2071.86 2042.68,2103.2 2059,2134.5C 2070.21,2152.22 2085.05,2165.89 2103.5,2175.5 Z"/></g>
<g><path style="opacity:1" fill="#282828" d="M 1912.5,1392.5 C 2066.5,1392.33 2220.5,1392.5 2374.5,1393C 2408.07,1391.69 2432.24,1405.85 2447,1435.5C 2454.06,1451.68 2459.73,1468.35 2464,1485.5C 2465.04,1497.06 2462.37,1507.72 2456,1517.5C 2377.75,1652.34 2299.75,1787.34 2222,1922.5C 2213.73,1936.45 2203.56,1948.95 2191.5,1960C 2164.31,1979.26 2135.65,1981.6 2105.5,1967C 2093.76,1959.92 2083.92,1950.76 2076,1939.5C 2067.17,1926.5 2058.83,1913.17 2051,1899.5C 1976.33,1770.17 1901.67,1640.83 1827,1511.5C 1822.8,1501.91 1821.47,1491.91 1823,1481.5C 1828.4,1459.37 1837.07,1438.71 1849,1419.5C 1860.28,1405.77 1874.78,1397.61 1892.5,1395C 1899.32,1394.19 1905.99,1393.35 1912.5,1392.5 Z"/></g>
<g><path style="opacity:1" fill="#222222" d="M 1930.5,1406.5 C 2078.51,1406.03 2226.51,1406.53 2374.5,1408C 2408.03,1409.51 2430.53,1426.01 2442,1457.5C 2446.89,1468.01 2450.06,1479.01 2451.5,1490.5C 2451.12,1499.47 2448.62,1507.8 2444,1515.5C 2368.08,1646.34 2292.41,1777.34 2217,1908.5C 2207.43,1925.81 2194.93,1940.64 2179.5,1953C 2145.64,1971.29 2115.8,1966.13 2090,1937.5C 2086.91,1932.99 2083.58,1928.65 2080,1924.5C 1998.53,1785.68 1917.87,1646.35 1838,1506.5C 1835.12,1496.93 1834.78,1487.26 1837,1477.5C 1841.75,1460.33 1849.42,1444.66 1860,1430.5C 1871.86,1418.15 1886.36,1410.99 1903.5,1409C 1912.65,1408.11 1921.65,1407.28 1930.5,1406.5 Z"/></g>
<g><path style="opacity:1" fill="#1c1c1c" d="M 1924.5,1421.5 C 2070.5,1421.33 2216.5,1421.5 2362.5,1422C 2393.78,1422.01 2416.28,1435.85 2430,1463.5C 2434.72,1472.1 2437.55,1481.27 2438.5,1491C 2437.88,1500.53 2435.05,1509.36 2430,1517.5C 2356,1645.5 2282,1773.5 2208,1901.5C 2199.36,1916.14 2188.53,1928.98 2175.5,1940C 2152.72,1954.46 2130.38,1953.8 2108.5,1938C 2101.97,1931.8 2095.8,1925.3 2090,1918.5C 2080.27,1903.77 2070.94,1888.77 2062,1873.5C 1992,1752.17 1922,1630.83 1852,1509.5C 1846.12,1495.59 1846.79,1481.92 1854,1468.5C 1867.22,1437.47 1890.72,1421.8 1924.5,1421.5 Z"/></g>
<g><path style="opacity:1" fill="#151515" d="M 1956.5,1437.5 C 2089.51,1437.05 2222.51,1437.55 2355.5,1439C 2389.03,1439.9 2411.2,1456.07 2422,1487.5C 2423.08,1499.59 2420.08,1510.59 2413,1520.5C 2342.41,1642 2272.08,1763.67 2202,1885.5C 2194.06,1899.11 2184.23,1911.28 2172.5,1922C 2151.68,1936.56 2131.35,1935.89 2111.5,1920C 2103.91,1912.42 2097.08,1904.25 2091,1895.5C 2015.93,1766.76 1941.27,1637.76 1867,1508.5C 1861.68,1495.44 1863.01,1483.11 1871,1471.5C 1884.99,1450.41 1904.82,1439.58 1930.5,1439C 1939.34,1438.83 1948.01,1438.33 1956.5,1437.5 Z"/></g>
<g><path style="opacity:1" fill="#0f0f0f" d="M 1944.5,1452.5 C 2077.17,1452.33 2209.83,1452.5 2342.5,1453C 2362.33,1453.03 2380,1459.03 2395.5,1471C 2408.79,1483.75 2410.96,1498.25 2402,1514.5C 2331.33,1636.5 2260.67,1758.5 2190,1880.5C 2183.92,1889.25 2177.09,1897.42 2169.5,1905C 2153.33,1918.14 2136.66,1918.81 2119.5,1907C 2112.26,1900.43 2105.76,1893.26 2100,1885.5C 2026.83,1760.49 1954.16,1635.16 1882,1509.5C 1875.63,1492.59 1879.8,1478.76 1894.5,1468C 1909.8,1458.18 1926.46,1453.01 1944.5,1452.5 Z"/></g>
<g><path style="opacity:1" fill="#090909" d="M 1960.5,1466.5 C 2082.5,1466.33 2204.5,1466.5 2326.5,1467C 2346.32,1466.24 2364.65,1470.91 2381.5,1481C 2390.4,1490.67 2391.9,1501.5 2386,1513.5C 2321.33,1625.5 2256.67,1737.5 2192,1849.5C 2184.41,1862.83 2175.25,1875 2164.5,1886C 2153.87,1895.09 2142.21,1896.75 2129.5,1891C 2118.24,1883.08 2109.08,1873.24 2102,1861.5C 2034.08,1744.66 1966.41,1627.66 1899,1510.5C 1893.69,1497.78 1896.52,1487.28 1907.5,1479C 1924.3,1470.68 1941.97,1466.51 1960.5,1466.5 Z"/></g>
<g><path style="opacity:1" fill="#010101" d="M 1960.5,1481.5 C 2082.17,1481.33 2203.83,1481.5 2325.5,1482C 2336.31,1482.3 2346.65,1484.63 2356.5,1489C 2367.03,1495.71 2369.2,1504.55 2363,1515.5C 2302.08,1620.34 2241.41,1725.34 2181,1830.5C 2174.41,1842.84 2165.57,1853.34 2154.5,1862C 2144.34,1866.91 2135.01,1865.57 2126.5,1858C 2121.74,1853.63 2117.58,1848.8 2114,1843.5C 2050.41,1734.66 1987.08,1625.66 1924,1516.5C 1917.57,1507.83 1918.07,1499.66 1925.5,1492C 1936.38,1485.53 1948.04,1482.03 1960.5,1481.5 Z"/></g>
<g><path style="opacity:1" fill="#343434" d="M 2232.5,1931.5 C 2221.08,1952 2209.42,1972.34 2197.5,1992.5C 2161.49,2005.81 2125.49,2005.81 2089.5,1992.5C 2077,1972.17 2065,1951.5 2053.5,1930.5C 2053.81,1929.26 2054.31,1929.26 2055,1930.5C 2058.33,1935.83 2061.67,1941.17 2065,1946.5C 2076.22,1963.05 2091.05,1975.22 2109.5,1983C 2163.82,1998.08 2204.32,1980.92 2231,1931.5C 2231.69,1930.26 2232.19,1930.26 2232.5,1931.5 Z"/></g>
<g><path style="opacity:1" fill="#3e3e3e" d="M 2089.5,1992.5 C 2125.49,2005.81 2161.49,2005.81 2197.5,1992.5C 2190.99,2004.86 2183.99,2016.86 2176.5,2028.5C 2154.34,2027.5 2132.01,2027.17 2109.5,2027.5C 2102.58,2016 2095.92,2004.34 2089.5,1992.5 Z"/></g>
<g><path style="opacity:1" fill="#4b4b4b" d="M 2109.5,2027.5 C 2132.01,2027.17 2154.34,2027.5 2176.5,2028.5C 2165.61,2047.94 2154.44,2067.28 2143,2086.5C 2131.81,2066.78 2120.64,2047.11 2109.5,2027.5 Z"/></g>
<g><path style="opacity:1" fill="#090909" d="M 990.5,2406.5 C 1015.84,2405.8 1040.84,2408.3 1065.5,2414C 1140.31,2439.77 1172.14,2491.93 1161,2570.5C 1154.32,2606.89 1145.99,2642.89 1136,2678.5C 1133.7,2699.68 1134.86,2720.68 1139.5,2741.5C 1131.09,2777.15 1113.76,2807.65 1087.5,2833C 1067.06,2849.21 1043.72,2858.21 1017.5,2860C 980.21,2864.17 943.544,2861.17 907.5,2851C 836.291,2822.1 807.124,2769.6 820,2693.5C 824.286,2674.41 828.952,2655.41 834,2636.5C 840.408,2618.61 846.408,2600.61 852,2582.5C 852.83,2577.86 853.497,2573.19 854,2568.5C 854.383,2552.82 854.383,2537.16 854,2521.5C 864.072,2487.17 881.905,2457.67 907.5,2433C 921.205,2421.65 936.871,2414.32 954.5,2411C 966.582,2408.94 978.582,2407.44 990.5,2406.5 Z"/></g>
<g><path style="opacity:1" fill="#090909" d="M 2834.5,2432.5 C 2852.19,2432.18 2869.86,2432.68 2887.5,2434C 2928.98,2438.4 2970.32,2443.74 3011.5,2450C 3033.06,2457.62 3053.4,2467.62 3072.5,2480C 3098.43,2498.29 3114.27,2523.13 3120,2554.5C 3130.53,2608.03 3131.2,2661.69 3122,2715.5C 3117.29,2749.41 3103.13,2778.58 3079.5,2803C 3039.4,2832.52 2994.73,2842.52 2945.5,2833C 2908.8,2828.52 2872.13,2823.85 2835.5,2819C 2812.18,2811.34 2790.18,2801.01 2769.5,2788C 2740.49,2766.84 2723.66,2738.34 2719,2702.5C 2709.96,2644.22 2711.63,2586.22 2724,2528.5C 2731.1,2503.44 2743.94,2481.94 2762.5,2464C 2784.24,2448.3 2808.24,2437.8 2834.5,2432.5 Z"/></g>
<g><path style="opacity:1" fill="#090909" d="M 336.5,2433.5 C 369.414,2434.08 399.748,2443.25 427.5,2461C 443.953,2472.78 456.787,2487.61 466,2505.5C 495.577,2554.56 515.91,2607.23 527,2663.5C 530.061,2683.06 531.061,2702.73 530,2722.5C 524.947,2762.77 503.78,2790.94 466.5,2807C 453.508,2813.16 439.841,2816.66 425.5,2817.5C 380.998,2816.85 336.498,2816.18 292,2815.5C 256.33,2821.05 224.164,2812.89 195.5,2791C 170.119,2769.23 157.786,2741.57 158.5,2708C 159.76,2667.7 167.927,2628.86 183,2591.5C 197.671,2554.15 216.004,2518.82 238,2485.5C 257.613,2461.94 282.446,2446.44 312.5,2439C 320.505,2436.57 328.505,2434.74 336.5,2433.5 Z"/></g>
<g><path style="opacity:1" fill="#090909" d="M 2247.5,2433.5 C 2283.72,2433.85 2316.39,2444.68 2345.5,2466C 2357.54,2476.03 2367.37,2487.87 2375,2501.5C 2405.44,2551.06 2426.44,2604.39 2438,2661.5C 2441.24,2682.72 2442.24,2704.06 2441,2725.5C 2436.13,2759.7 2418.63,2785.2 2388.5,2802C 2372.34,2810.61 2355.18,2815.78 2337,2817.5C 2292.5,2816.85 2248,2816.18 2203.5,2815.5C 2166.54,2821.23 2133.54,2812.4 2104.5,2789C 2079.92,2767.27 2068.58,2739.94 2070.5,2707C 2071,2672.14 2077.17,2638.31 2089,2605.5C 2103.92,2563.66 2123.59,2524.32 2148,2487.5C 2162.47,2468.38 2180.97,2454.54 2203.5,2446C 2217.85,2440.25 2232.52,2436.08 2247.5,2433.5 Z"/></g>
<g><path style="opacity:1" fill="#090909" d="M 1562.5,2450.5 C 1592.26,2456.03 1618.93,2468.19 1642.5,2487C 1665.57,2507.3 1679.07,2532.8 1683,2563.5C 1683.39,2580.82 1688.06,2596.82 1697,2611.5C 1703.39,2627.28 1710.06,2642.95 1717,2658.5C 1726.06,2671.23 1734.73,2684.23 1743,2697.5C 1750.95,2712.23 1756.78,2727.73 1760.5,2744C 1751.8,2781.42 1733.13,2812.76 1704.5,2838C 1687.32,2849.5 1668.32,2855.84 1647.5,2857C 1620.58,2859.36 1593.92,2857.69 1567.5,2852C 1492.1,2823.92 1450.6,2769.76 1443,2689.5C 1436.95,2640.75 1439.28,2592.42 1450,2544.5C 1459.51,2511.66 1479.34,2487.16 1509.5,2471C 1526.43,2461.86 1544.09,2455.02 1562.5,2450.5 Z"/></g>
<g><path style="opacity:1" fill="#0f0f0f" d="M 2859.5,2457.5 C 2875.26,2457.96 2890.93,2459.46 2906.5,2462C 2940.59,2468.03 2974.59,2474.36 3008.5,2481C 3032.79,2492.63 3054.29,2508.13 3073,2527.5C 3083.91,2542.33 3091.91,2558.66 3097,2576.5C 3108.19,2619.15 3109.52,2662.15 3101,2705.5C 3091.58,2755.6 3062.75,2789.1 3014.5,2806C 3010.58,2807.31 3006.58,2808.31 3002.5,2809C 2987.83,2809.67 2973.17,2809.67 2958.5,2809C 2925.15,2804.93 2892.15,2798.93 2859.5,2791C 2852.16,2790.06 2844.82,2789.06 2837.5,2788C 2810.4,2776.54 2786.9,2760.04 2767,2738.5C 2751.67,2716.19 2742,2691.53 2738,2664.5C 2732.63,2626.95 2733.96,2589.62 2742,2552.5C 2750.22,2517.87 2769.72,2491.71 2800.5,2474C 2812.22,2467.43 2824.55,2462.43 2837.5,2459C 2845.01,2458.83 2852.34,2458.33 2859.5,2457.5 Z"/></g>
<g><path style="opacity:1" fill="#0f0f0f" d="M 333.5,2461.5 C 349.387,2459.91 364.72,2462.08 379.5,2468C 415.403,2483.35 442.57,2508.19 461,2542.5C 473.713,2568.92 485.046,2595.92 495,2623.5C 504.247,2651.56 506.913,2680.23 503,2709.5C 500.001,2732 489.835,2750.5 472.5,2765C 460.699,2775.45 447.365,2783.45 432.5,2789C 403.49,2793 374.323,2794.83 345,2794.5C 315.684,2794.77 286.517,2792.94 257.5,2789C 232.354,2779.52 212.187,2763.69 197,2741.5C 188.433,2723.5 184.267,2704.5 184.5,2684.5C 185.908,2656.87 191.741,2630.2 202,2604.5C 211.118,2582.93 220.785,2561.6 231,2540.5C 253.738,2499.25 287.905,2472.92 333.5,2461.5 Z"/></g>
<g><path style="opacity:1" fill="#0f0f0f" d="M 2244.5,2461.5 C 2287.8,2461.57 2323.3,2478.23 2351,2511.5C 2365.37,2528.89 2376.71,2548.23 2385,2569.5C 2392.78,2586.85 2399.78,2604.52 2406,2622.5C 2415.67,2651.57 2418.34,2681.23 2414,2711.5C 2410.26,2734.15 2399.43,2752.65 2381.5,2767C 2367.68,2779.24 2351.68,2787.24 2333.5,2791C 2278.41,2796.22 2223.41,2795.56 2168.5,2789C 2146.35,2780.52 2127.85,2767.02 2113,2748.5C 2100.71,2729.19 2095.21,2708.02 2096.5,2685C 2097.21,2655.65 2103.38,2627.49 2115,2600.5C 2123.89,2579.16 2133.56,2558.16 2144,2537.5C 2167.04,2498.24 2200.54,2472.91 2244.5,2461.5 Z"/></g>
<g><path style="opacity:1" fill="#151515" d="M 2977.5,2499.5 C 2973.94,2503.84 2971.94,2508.84 2971.5,2514.5C 2947.53,2507.26 2923.19,2501.42 2898.5,2497C 2889.86,2495.95 2881.19,2495.11 2872.5,2494.5C 2868.88,2494.4 2865.55,2495.06 2862.5,2496.5C 2855.07,2494.09 2847.41,2493.09 2839.5,2493.5C 2832.02,2493.23 2824.69,2494.07 2817.5,2496C 2809.8,2500.59 2806.13,2507.42 2806.5,2516.5C 2794.48,2526.04 2785.64,2538.04 2780,2552.5C 2763.2,2603.32 2767.87,2651.99 2794,2698.5C 2797.64,2704.63 2801.81,2710.3 2806.5,2715.5C 2806.5,2724.83 2806.5,2734.17 2806.5,2743.5C 2785.06,2724.52 2770.22,2701.19 2762,2673.5C 2750.58,2631.78 2750.91,2590.11 2763,2548.5C 2771.56,2525.22 2786.39,2507.06 2807.5,2494C 2818.11,2486.53 2829.78,2481.53 2842.5,2479C 2862.59,2476.74 2882.59,2477.41 2902.5,2481C 2927.46,2485.41 2952.12,2491.07 2976.5,2498C 2977.06,2498.38 2977.39,2498.88 2977.5,2499.5 Z"/></g>
<g><path style="opacity:1" fill="#151515" d="M 465.5,2736.5 C 462.167,2728.17 458.833,2719.83 455.5,2711.5C 467.126,2687.45 469.293,2662.45 462,2636.5C 455.498,2608.99 445.831,2582.66 433,2557.5C 419.943,2535.6 401.776,2519.6 378.5,2509.5C 371.954,2495.83 360.954,2490.5 345.5,2493.5C 328.962,2490.4 317.629,2496.4 311.5,2511.5C 311.44,2510.96 311.107,2510.62 310.5,2510.5C 287.02,2521.48 268.853,2538.15 256,2560.5C 238.707,2594.38 227.873,2630.21 223.5,2668C 224.416,2681.58 227.25,2694.75 232,2707.5C 232.417,2708.76 233.25,2709.42 234.5,2709.5C 230.893,2717.72 227.559,2726.05 224.5,2734.5C 223.883,2734.61 223.383,2734.94 223,2735.5C 207.795,2709.75 202.795,2682.08 208,2652.5C 216.307,2616.24 228.974,2581.58 246,2548.5C 265.815,2517.85 292.982,2496.68 327.5,2485C 344.216,2481.37 360.55,2482.7 376.5,2489C 408.78,2503.95 433.28,2527.11 450,2558.5C 459.647,2580.44 468.314,2602.77 476,2625.5C 479.822,2638.94 482.489,2652.61 484,2666.5C 484.678,2685.1 481.678,2703.1 475,2720.5C 472.563,2726.39 469.396,2731.73 465.5,2736.5 Z"/></g>
<g><path style="opacity:1" fill="#151515" d="M 2376.5,2736.5 C 2373.16,2727.83 2369.83,2719.16 2366.5,2710.5C 2368.28,2709.43 2369.45,2707.76 2370,2705.5C 2375.88,2690.35 2378.21,2674.68 2377,2658.5C 2371.95,2623.36 2361.29,2590.03 2345,2558.5C 2331.72,2536.35 2313.55,2520.35 2290.5,2510.5C 2284.09,2496.26 2272.93,2490.6 2257,2493.5C 2248.87,2492.92 2241.04,2494.09 2233.5,2497C 2228.8,2500.53 2225.46,2505.03 2223.5,2510.5C 2200.3,2519.63 2182.13,2535.3 2169,2557.5C 2152.6,2589.04 2141.6,2622.37 2136,2657.5C 2134.54,2674.91 2137.04,2691.74 2143.5,2708C 2143.84,2709.03 2144.5,2709.53 2145.5,2709.5C 2142.17,2718.17 2138.83,2726.83 2135.5,2735.5C 2131.7,2731.92 2128.86,2727.58 2127,2722.5C 2118.87,2702.59 2115.87,2681.93 2118,2660.5C 2125.94,2620.94 2139.28,2583.28 2158,2547.5C 2175.31,2521.52 2198.14,2502.02 2226.5,2489C 2253.4,2479.06 2279.07,2481.72 2303.5,2497C 2319.82,2507.31 2334.32,2519.81 2347,2534.5C 2354.01,2544.52 2360.01,2555.19 2365,2566.5C 2373.12,2585.52 2380.45,2604.86 2387,2624.5C 2398.92,2657.82 2398.25,2690.82 2385,2723.5C 2382.64,2728.24 2379.81,2732.57 2376.5,2736.5 Z"/></g>
<g><path style="opacity:1" fill="#0f0f0f" d="M 1711.5,2715.5 C 1699.86,2714.61 1688.19,2714.28 1676.5,2714.5C 1681.99,2713.67 1687.65,2713.17 1693.5,2713C 1685.37,2684.91 1674.87,2657.75 1662,2631.5C 1654.5,2618.34 1645.83,2606 1636,2594.5C 1630.82,2580.29 1624.49,2566.62 1617,2553.5C 1611.45,2544.95 1604.79,2537.28 1597,2530.5C 1596.83,2543.67 1596.33,2556.67 1595.5,2569.5C 1595.67,2550.16 1595.5,2530.83 1595,2511.5C 1593.27,2501.04 1587.1,2495.21 1576.5,2494C 1568.5,2493.33 1560.5,2493.33 1552.5,2494C 1542.44,2495.26 1536.28,2500.76 1534,2510.5C 1533.5,2591.5 1533.33,2672.5 1533.5,2753.5C 1532.54,2751.74 1532.21,2749.74 1532.5,2747.5C 1532.5,2688.5 1532.5,2629.5 1532.5,2570.5C 1532.67,2557.16 1532.5,2543.83 1532,2530.5C 1511.97,2549.89 1498.63,2573.22 1492,2600.5C 1484.06,2628.96 1483.4,2657.63 1490,2686.5C 1493.67,2707.84 1500.33,2728.17 1510,2747.5C 1522.5,2764 1537,2778.5 1553.5,2791C 1563.66,2798.16 1574.99,2802.16 1587.5,2803C 1619.7,2808.28 1649.03,2801.61 1675.5,2783C 1678.17,2780.33 1680.83,2777.67 1683.5,2775C 1677.98,2774.83 1672.65,2774.33 1667.5,2773.5C 1681.86,2773.76 1696.2,2773.43 1710.5,2772.5C 1701.66,2799.16 1683.32,2816.33 1655.5,2824C 1628.93,2830.96 1602.26,2831.29 1575.5,2825C 1568.87,2823.46 1562.54,2821.12 1556.5,2818C 1527.45,2799.74 1503.62,2776.24 1485,2747.5C 1461.81,2691.94 1457.48,2634.94 1472,2576.5C 1477.44,2554.44 1487.94,2535.27 1503.5,2519C 1519.37,2505.56 1537.04,2494.89 1556.5,2487C 1561.83,2485 1567.17,2485 1572.5,2487C 1595.99,2496.49 1616.49,2510.32 1634,2528.5C 1647.61,2547.4 1656.61,2568.4 1661,2591.5C 1665.6,2599.77 1670.6,2607.77 1676,2615.5C 1681.55,2625.93 1686.55,2636.59 1691,2647.5C 1698.51,2670.02 1706.01,2692.52 1713.5,2715C 1712.91,2715.46 1712.24,2715.63 1711.5,2715.5 Z"/></g>
<g><path style="opacity:1" fill="#010101" d="M 378.5,2509.5 C 381.324,2517.32 384.324,2524.98 387.5,2532.5C 406.107,2582.66 425.107,2632.66 444.5,2682.5C 448.442,2692.05 452.108,2701.72 455.5,2711.5C 458.833,2719.83 462.167,2728.17 465.5,2736.5C 467.481,2741.91 469.148,2747.41 470.5,2753C 469.55,2761.23 465.55,2767.56 458.5,2772C 447.544,2773.52 436.544,2773.85 425.5,2773C 421.875,2772.43 418.542,2771.27 415.5,2769.5C 410.14,2765.41 406.807,2760.07 405.5,2753.5C 403.402,2746.99 401.068,2740.66 398.5,2734.5C 397.401,2729.86 395.734,2725.52 393.5,2721.5C 391.332,2713.83 388.665,2706.33 385.5,2699C 358.161,2698.17 330.827,2698.33 303.5,2699.5C 300.875,2705.75 298.542,2712.08 296.5,2718.5C 294.325,2723.68 292.325,2729.01 290.5,2734.5C 287.925,2740.67 285.591,2747 283.5,2753.5C 281.775,2756.62 280.275,2759.96 279,2763.5C 277.669,2766 275.836,2768 273.5,2769.5C 265.965,2772.93 257.965,2774.26 249.5,2773.5C 240.96,2774.42 232.96,2772.92 225.5,2769C 221.255,2764.95 218.921,2759.95 218.5,2754C 219.655,2747.21 221.655,2740.71 224.5,2734.5C 227.559,2726.05 230.893,2717.72 234.5,2709.5C 237.776,2700 241.443,2690.67 245.5,2681.5C 264.696,2632.58 283.696,2583.58 302.5,2534.5C 306.067,2527.15 309.067,2519.48 311.5,2511.5C 317.629,2496.4 328.962,2490.4 345.5,2493.5C 360.954,2490.5 371.954,2495.83 378.5,2509.5 Z"/></g>
<g><path style="opacity:1" fill="#010101" d="M 925.5,2493.5 C 934.5,2493.5 943.5,2493.5 952.5,2493.5C 992.5,2493.5 1032.5,2493.5 1072.5,2493.5C 1093.19,2492.19 1102.86,2501.86 1101.5,2522.5C 1101.76,2529.37 1100.76,2536.04 1098.5,2542.5C 1091.5,2551.83 1084.5,2561.17 1077.5,2570.5C 1069.12,2580.88 1061.12,2591.55 1053.5,2602.5C 1024.7,2639.48 996.03,2676.65 967.5,2714C 983.497,2714.5 999.497,2714.67 1015.5,2714.5C 1026.17,2714.5 1036.83,2714.5 1047.5,2714.5C 1059.5,2714.5 1071.5,2714.5 1083.5,2714.5C 1094.68,2716.52 1100.85,2723.18 1102,2734.5C 1102.5,2740.82 1102.67,2747.16 1102.5,2753.5C 1101.38,2760.98 1097.71,2766.98 1091.5,2771.5C 1089.25,2772.21 1086.92,2772.71 1084.5,2773C 1073.51,2773.5 1062.51,2773.67 1051.5,2773.5C 1038.5,2773.5 1025.5,2773.5 1012.5,2773.5C 983.5,2773.5 954.5,2773.5 925.5,2773.5C 915.494,2773.67 905.494,2773.5 895.5,2773C 887,2771.17 881.833,2766 880,2757.5C 878.966,2747.02 879.466,2736.69 881.5,2726.5C 888.422,2716.24 895.756,2706.24 903.5,2696.5C 912.076,2685.68 920.41,2674.68 928.5,2663.5C 956.409,2627.35 984.076,2591.01 1011.5,2554.5C 1012.29,2554.22 1012.96,2553.72 1013.5,2553C 977.477,2552.81 941.477,2552.31 905.5,2551.5C 899.852,2549.35 896.019,2545.35 894,2539.5C 892.054,2528.18 892.054,2516.85 894,2505.5C 897.719,2498.45 903.553,2494.61 911.5,2494C 916.155,2493.5 920.821,2493.33 925.5,2493.5 Z"/></g>
<g><path style="opacity:1" fill="#020202" d="M 1595.5,2569.5 C 1595.5,2586.5 1595.5,2603.5 1595.5,2620.5C 1595.5,2651.83 1595.5,2683.17 1595.5,2714.5C 1612.5,2714.5 1629.5,2714.5 1646.5,2714.5C 1656.5,2714.5 1666.5,2714.5 1676.5,2714.5C 1688.19,2714.28 1699.86,2714.61 1711.5,2715.5C 1722.05,2721.91 1726.38,2731.41 1724.5,2744C 1726.54,2757.14 1721.88,2766.64 1710.5,2772.5C 1696.2,2773.43 1681.86,2773.76 1667.5,2773.5C 1628.17,2773.67 1588.83,2773.5 1549.5,2773C 1539.33,2770.5 1534,2764 1533.5,2753.5C 1533.33,2672.5 1533.5,2591.5 1534,2510.5C 1536.28,2500.76 1542.44,2495.26 1552.5,2494C 1560.5,2493.33 1568.5,2493.33 1576.5,2494C 1587.1,2495.21 1593.27,2501.04 1595,2511.5C 1595.5,2530.83 1595.67,2550.16 1595.5,2569.5 Z"/></g>
<g><path style="opacity:1" fill="#010101" d="M 2290.5,2510.5 C 2292.97,2517.91 2295.64,2525.25 2298.5,2532.5C 2317.56,2582.94 2336.89,2633.28 2356.5,2683.5C 2359.83,2692.5 2363.17,2701.5 2366.5,2710.5C 2369.83,2719.16 2373.16,2727.83 2376.5,2736.5C 2387.32,2762.52 2378.66,2774.85 2350.5,2773.5C 2345.83,2773.33 2341.17,2773.17 2336.5,2773C 2333.17,2772.51 2330.17,2771.34 2327.5,2769.5C 2324.34,2767.56 2321.84,2764.9 2320,2761.5C 2319.1,2758.28 2317.93,2755.28 2316.5,2752.5C 2314.67,2747.01 2312.67,2741.68 2310.5,2736.5C 2309.07,2730.86 2307.07,2725.53 2304.5,2720.5C 2302.17,2713.17 2299.83,2705.83 2297.5,2698.5C 2269.83,2698.17 2242.16,2698.5 2214.5,2699.5C 2212.15,2706.19 2209.82,2712.85 2207.5,2719.5C 2204.99,2724.55 2202.99,2729.88 2201.5,2735.5C 2198.79,2741.27 2196.46,2747.27 2194.5,2753.5C 2193.17,2760.15 2189.84,2765.48 2184.5,2769.5C 2181.54,2771.54 2178.21,2772.71 2174.5,2773C 2165.5,2773.67 2156.5,2773.67 2147.5,2773C 2136.75,2771.07 2131.08,2764.57 2130.5,2753.5C 2130.96,2747.13 2132.63,2741.13 2135.5,2735.5C 2138.83,2726.83 2142.17,2718.17 2145.5,2709.5C 2149.17,2700.16 2152.83,2690.83 2156.5,2681.5C 2176.22,2632 2195.56,2582.33 2214.5,2532.5C 2217.87,2525.4 2220.87,2518.07 2223.5,2510.5C 2225.46,2505.03 2228.8,2500.53 2233.5,2497C 2241.04,2494.09 2248.87,2492.92 2257,2493.5C 2272.93,2490.6 2284.09,2496.26 2290.5,2510.5 Z"/></g>
<g><path style="opacity:1" fill="#010101" d="M 2862.5,2496.5 C 2864.15,2497.81 2865.81,2499.14 2867.5,2500.5C 2870.28,2505.07 2873.28,2509.41 2876.5,2513.5C 2879.14,2518.13 2882.14,2522.47 2885.5,2526.5C 2893.25,2539.01 2901.25,2551.35 2909.5,2563.5C 2929.78,2594.95 2950.28,2626.28 2971,2657.5C 2971.5,2635.84 2971.67,2614.17 2971.5,2592.5C 2971.5,2579.17 2971.5,2565.83 2971.5,2552.5C 2971.5,2546.83 2971.5,2541.17 2971.5,2535.5C 2971.5,2528.5 2971.5,2521.5 2971.5,2514.5C 2971.94,2508.84 2973.94,2503.84 2977.5,2499.5C 2981.51,2496.25 2986.18,2494.42 2991.5,2494C 3002.29,2492.93 3012.96,2493.6 3023.5,2496C 3027,2498.17 3029.83,2501 3032,2504.5C 3033.89,2510.7 3034.72,2517.03 3034.5,2523.5C 3034.5,2532.83 3034.5,2542.17 3034.5,2551.5C 3034.5,2562.83 3034.5,2574.17 3034.5,2585.5C 3034.5,2632.17 3034.5,2678.83 3034.5,2725.5C 3034.5,2734.17 3034.5,2742.83 3034.5,2751.5C 3034.1,2763.4 3028.1,2770.57 3016.5,2773C 3005.83,2773.67 2995.17,2773.67 2984.5,2773C 2982.75,2772.65 2981.09,2772.15 2979.5,2771.5C 2976.25,2769.76 2973.42,2767.42 2971,2764.5C 2969.3,2761.08 2967.13,2758.08 2964.5,2755.5C 2962,2750.49 2959,2745.82 2955.5,2741.5C 2952.19,2735.54 2948.53,2729.87 2944.5,2724.5C 2940.52,2717.87 2936.19,2711.54 2931.5,2705.5C 2911.91,2673.98 2891.58,2642.98 2870.5,2612.5C 2869.5,2645.12 2869.17,2679.12 2869.5,2714.5C 2869.5,2720.5 2869.5,2726.5 2869.5,2732.5C 2869.5,2739.17 2869.5,2745.83 2869.5,2752.5C 2869.09,2758.75 2866.76,2764.08 2862.5,2768.5C 2859.25,2770.87 2855.58,2772.37 2851.5,2773C 2842.5,2773.67 2833.5,2773.67 2824.5,2773C 2817.44,2772.27 2812.28,2768.77 2809,2762.5C 2807.11,2756.31 2806.28,2749.98 2806.5,2743.5C 2806.5,2734.17 2806.5,2724.83 2806.5,2715.5C 2806.5,2704.17 2806.5,2692.83 2806.5,2681.5C 2806.5,2635.17 2806.5,2588.83 2806.5,2542.5C 2806.5,2533.83 2806.5,2525.17 2806.5,2516.5C 2806.13,2507.42 2809.8,2500.59 2817.5,2496C 2824.69,2494.07 2832.02,2493.23 2839.5,2493.5C 2847.41,2493.09 2855.07,2494.09 2862.5,2496.5 Z"/></g>
<g><path style="opacity:1" fill="#1b1b1b" d="M 2971.5,2514.5 C 2971.5,2521.5 2971.5,2528.5 2971.5,2535.5C 2941.13,2521.65 2909.46,2514.32 2876.5,2513.5C 2873.28,2509.41 2870.28,2505.07 2867.5,2500.5C 2865.81,2499.14 2864.15,2497.81 2862.5,2496.5C 2865.55,2495.06 2868.88,2494.4 2872.5,2494.5C 2881.19,2495.11 2889.86,2495.95 2898.5,2497C 2923.19,2501.42 2947.53,2507.26 2971.5,2514.5 Z"/></g>
<g><path style="opacity:1" fill="#0f0f0f" d="M 1102.5,2753.5 C 1102.67,2747.16 1102.5,2740.82 1102,2734.5C 1100.85,2723.18 1094.68,2716.52 1083.5,2714.5C 1083.54,2701.73 1084.71,2689.06 1087,2676.5C 1092.4,2661.65 1097.4,2646.65 1102,2631.5C 1105.68,2613.76 1109.68,2596.09 1114,2578.5C 1118.77,2560.28 1119.44,2541.95 1116,2523.5C 1104.03,2498.4 1086.2,2478.57 1062.5,2464C 1048.42,2457.46 1033.59,2454.29 1018,2454.5C 990.084,2454.14 964.584,2461.64 941.5,2477C 935.292,2481.71 929.958,2487.21 925.5,2493.5C 920.821,2493.33 916.155,2493.5 911.5,2494C 903.553,2494.61 897.719,2498.45 894,2505.5C 892.054,2516.85 892.054,2528.18 894,2539.5C 896.019,2545.35 899.852,2549.35 905.5,2551.5C 903.572,2563.73 901.405,2576.06 899,2588.5C 892.113,2604.28 885.779,2620.28 880,2636.5C 873.387,2660.29 867.72,2684.29 863,2708.5C 862.333,2718.17 862.333,2727.83 863,2737.5C 864.103,2744.81 866.769,2751.48 871,2757.5C 881.106,2771.94 892.939,2784.77 906.5,2796C 925.26,2808.81 946.094,2814.97 969,2814.5C 997.263,2814.98 1023.1,2807.48 1046.5,2792C 1052.83,2787 1058.5,2781.33 1063.5,2775C 1059.31,2774.82 1055.31,2774.32 1051.5,2773.5C 1062.51,2773.67 1073.51,2773.5 1084.5,2773C 1086.92,2772.71 1089.25,2772.21 1091.5,2771.5C 1072.22,2810.72 1040.22,2831.88 995.5,2835C 925.999,2843.18 876.166,2816.01 846,2753.5C 842.555,2744.83 841.055,2735.83 841.5,2726.5C 845.81,2681.26 857.31,2637.93 876,2596.5C 882.671,2575.3 885.171,2553.64 883.5,2531.5C 883.892,2528.15 884.392,2524.82 885,2521.5C 896.05,2495.54 911.883,2473.04 932.5,2454C 956.688,2438.83 983.188,2431.66 1012,2432.5C 1042.34,2431.17 1069.18,2440 1092.5,2459C 1114.41,2476.57 1129.58,2498.74 1138,2525.5C 1139.46,2540.53 1138.79,2555.53 1136,2570.5C 1132.03,2585.35 1128.7,2600.35 1126,2615.5C 1120.67,2637.14 1114.34,2658.48 1107,2679.5C 1103.85,2698.97 1103.69,2718.47 1106.5,2738C 1106.87,2743.71 1105.53,2748.88 1102.5,2753.5 Z"/></g>
<g><path style="opacity:1" fill="#151515" d="M 1083.5,2714.5 C 1071.5,2714.5 1059.5,2714.5 1047.5,2714.5C 1053.31,2713.51 1059.31,2713.18 1065.5,2713.5C 1065.87,2701.76 1067.04,2690.09 1069,2678.5C 1074.2,2663.91 1079.2,2649.24 1084,2634.5C 1088.06,2614.43 1092.39,2594.43 1097,2574.5C 1098.7,2565.23 1099.87,2555.9 1100.5,2546.5C 1100.66,2544.65 1099.99,2543.31 1098.5,2542.5C 1100.76,2536.04 1101.76,2529.37 1101.5,2522.5C 1102.86,2501.86 1093.19,2492.19 1072.5,2493.5C 1057.71,2479.78 1040.04,2473.12 1019.5,2473.5C 995.073,2473.76 972.74,2480.43 952.5,2493.5C 943.5,2493.5 934.5,2493.5 925.5,2493.5C 929.958,2487.21 935.292,2481.71 941.5,2477C 964.584,2461.64 990.084,2454.14 1018,2454.5C 1033.59,2454.29 1048.42,2457.46 1062.5,2464C 1086.2,2478.57 1104.03,2498.4 1116,2523.5C 1119.44,2541.95 1118.77,2560.28 1114,2578.5C 1109.68,2596.09 1105.68,2613.76 1102,2631.5C 1097.4,2646.65 1092.4,2661.65 1087,2676.5C 1084.71,2689.06 1083.54,2701.73 1083.5,2714.5 Z"/></g>
<g><path style="opacity:1" fill="#1b1b1b" d="M 1072.5,2493.5 C 1032.5,2493.5 992.5,2493.5 952.5,2493.5C 972.74,2480.43 995.073,2473.76 1019.5,2473.5C 1040.04,2473.12 1057.71,2479.78 1072.5,2493.5 Z"/></g>
<g><path style="opacity:1" fill="#1b1b1b" d="M 378.5,2509.5 C 401.776,2519.6 419.943,2535.6 433,2557.5C 445.831,2582.66 455.498,2608.99 462,2636.5C 469.293,2662.45 467.126,2687.45 455.5,2711.5C 452.108,2701.72 448.442,2692.05 444.5,2682.5C 445.117,2682.39 445.617,2682.06 446,2681.5C 448.326,2672.63 448.993,2663.63 448,2654.5C 444.557,2618.98 433.224,2586.31 414,2556.5C 406.523,2546.85 397.689,2538.85 387.5,2532.5C 384.324,2524.98 381.324,2517.32 378.5,2509.5 Z"/></g>
<g><path style="opacity:1" fill="#1b1b1b" d="M 2223.5,2510.5 C 2220.87,2518.07 2217.87,2525.4 2214.5,2532.5C 2198.68,2542.49 2186.51,2555.82 2178,2572.5C 2163.27,2601.42 2154.77,2632.09 2152.5,2664.5C 2153.11,2668.49 2153.61,2672.49 2154,2676.5C 2154.1,2678.65 2154.93,2680.32 2156.5,2681.5C 2152.83,2690.83 2149.17,2700.16 2145.5,2709.5C 2144.5,2709.53 2143.84,2709.03 2143.5,2708C 2137.04,2691.74 2134.54,2674.91 2136,2657.5C 2141.6,2622.37 2152.6,2589.04 2169,2557.5C 2182.13,2535.3 2200.3,2519.63 2223.5,2510.5 Z"/></g>
<g><path style="opacity:1" fill="#1b1b1b" d="M 2366.5,2710.5 C 2363.17,2701.5 2359.83,2692.5 2356.5,2683.5C 2358.9,2677.01 2359.9,2670.18 2359.5,2663C 2357.66,2623.48 2345.83,2587.31 2324,2554.5C 2317.1,2545.16 2308.6,2537.83 2298.5,2532.5C 2295.64,2525.25 2292.97,2517.91 2290.5,2510.5C 2313.55,2520.35 2331.72,2536.35 2345,2558.5C 2361.29,2590.03 2371.95,2623.36 2377,2658.5C 2378.21,2674.68 2375.88,2690.35 2370,2705.5C 2369.45,2707.76 2368.28,2709.43 2366.5,2710.5 Z"/></g>
<g><path style="opacity:1" fill="#1b1b1b" d="M 311.5,2511.5 C 309.067,2519.48 306.067,2527.15 302.5,2534.5C 302.44,2533.96 302.107,2533.62 301.5,2533.5C 288.108,2542.73 277.275,2554.39 269,2568.5C 251.39,2600.61 242.39,2634.94 242,2671.5C 242.392,2674.19 242.892,2676.85 243.5,2679.5C 243.747,2680.71 244.414,2681.38 245.5,2681.5C 241.443,2690.67 237.776,2700 234.5,2709.5C 233.25,2709.42 232.417,2708.76 232,2707.5C 227.25,2694.75 224.416,2681.58 223.5,2668C 227.873,2630.21 238.707,2594.38 256,2560.5C 268.853,2538.15 287.02,2521.48 310.5,2510.5C 311.107,2510.62 311.44,2510.96 311.5,2511.5 Z"/></g>
<g><path style="opacity:1" fill="#222222" d="M 2971.5,2535.5 C 2971.5,2541.17 2971.5,2546.83 2971.5,2552.5C 2944.37,2538.79 2915.7,2530.12 2885.5,2526.5C 2882.14,2522.47 2879.14,2518.13 2876.5,2513.5C 2909.46,2514.32 2941.13,2521.65 2971.5,2535.5 Z"/></g>
<g><path style="opacity:1" fill="#fbfbfb" d="M 332.5,2513.5 C 341.418,2513.18 350.251,2513.52 359,2514.5C 389.371,2594.07 419.871,2673.57 450.5,2753C 442.507,2753.5 434.507,2753.67 426.5,2753.5C 418.195,2728.42 409.195,2703.58 399.5,2679C 362.829,2678.17 326.162,2678.33 289.5,2679.5C 280.333,2703.83 271.167,2728.17 262,2752.5C 254.225,2753.81 246.392,2753.81 238.5,2752.5C 270.123,2672.92 301.457,2593.26 332.5,2513.5 Z"/></g>
<g><path style="opacity:1" fill="#fbfbfb" d="M 912.5,2513.5 C 968.833,2513.5 1025.17,2513.5 1081.5,2513.5C 1081.67,2519.84 1081.5,2526.18 1081,2532.5C 1029.83,2599.67 978.667,2666.83 927.5,2734C 979.166,2734.5 1030.83,2734.67 1082.5,2734.5C 1082.5,2740.83 1082.5,2747.17 1082.5,2753.5C 1021.5,2753.5 960.5,2753.5 899.5,2753.5C 899.334,2746.83 899.5,2740.16 900,2733.5C 950.955,2667.09 1001.79,2600.59 1052.5,2534C 1005.83,2533.5 959.168,2533.33 912.5,2533.5C 912.5,2526.83 912.5,2520.17 912.5,2513.5 Z"/></g>
<g><path style="opacity:1" fill="#fefefe" d="M 1575.5,2513.5 C 1575.5,2587.17 1575.5,2660.83 1575.5,2734.5C 1618.5,2734.5 1661.5,2734.5 1704.5,2734.5C 1704.5,2740.83 1704.5,2747.17 1704.5,2753.5C 1654.17,2753.5 1603.83,2753.5 1553.5,2753.5C 1553.5,2673.5 1553.5,2593.5 1553.5,2513.5C 1560.83,2513.5 1568.17,2513.5 1575.5,2513.5 Z"/></g>
<g><path style="opacity:1" fill="#393939" d="M 1575.5,2513.5 C 1576.5,2586.66 1576.83,2660 1576.5,2733.5C 1619.34,2733.17 1662,2733.5 1704.5,2734.5C 1661.5,2734.5 1618.5,2734.5 1575.5,2734.5C 1575.5,2660.83 1575.5,2587.17 1575.5,2513.5 Z"/></g>
<g><path style="opacity:1" fill="#fbfbfb" d="M 2243.5,2513.5 C 2252.17,2513.33 2260.84,2513.5 2269.5,2514C 2300.57,2593.32 2331.24,2672.82 2361.5,2752.5C 2353.61,2753.81 2345.77,2753.81 2338,2752.5C 2328.87,2727.91 2320.03,2703.24 2311.5,2678.5C 2274.5,2678.5 2237.5,2678.5 2200.5,2678.5C 2191.7,2703.58 2182.7,2728.58 2173.5,2753.5C 2165.49,2753.67 2157.49,2753.5 2149.5,2753C 2181.52,2673.42 2212.86,2593.59 2243.5,2513.5 Z"/></g>
<g><path style="opacity:1" fill="#c5c5c5" d="M 2852.5,2514.5 C 2844.17,2514.5 2835.83,2514.5 2827.5,2514.5C 2827.5,2594.17 2827.5,2673.83 2827.5,2753.5C 2826.5,2673.67 2826.17,2593.67 2826.5,2513.5C 2835.35,2513.17 2844.02,2513.51 2852.5,2514.5 Z"/></g>
<g><path style="opacity:1" fill="#fdfdfd" d="M 2852.5,2514.5 C 2898.53,2583.21 2944.19,2652.21 2989.5,2721.5C 2989.56,2722.04 2989.89,2722.38 2990.5,2722.5C 2991.5,2686.17 2991.83,2649.84 2991.5,2613.5C 2991.5,2594.83 2991.5,2576.17 2991.5,2557.5C 2992.5,2543.34 2992.83,2529.01 2992.5,2514.5C 2999.5,2514.5 3006.5,2514.5 3013.5,2514.5C 3013.5,2594.17 3013.5,2673.83 3013.5,2753.5C 3004.58,2753.82 2995.75,2753.48 2987,2752.5C 2941.61,2683.95 2896.44,2615.28 2851.5,2546.5C 2851.22,2545.71 2850.72,2545.04 2850,2544.5C 2849.5,2569.16 2849.33,2593.83 2849.5,2618.5C 2849.5,2663.5 2849.5,2708.5 2849.5,2753.5C 2842.17,2753.5 2834.83,2753.5 2827.5,2753.5C 2827.5,2673.83 2827.5,2594.17 2827.5,2514.5C 2835.83,2514.5 2844.17,2514.5 2852.5,2514.5 Z"/></g>
<g><path style="opacity:1" fill="#dfdfdf" d="M 3013.5,2753.5 C 3013.5,2673.83 3013.5,2594.17 3013.5,2514.5C 3006.5,2514.5 2999.5,2514.5 2992.5,2514.5C 2992.83,2529.01 2992.5,2543.34 2991.5,2557.5C 2991.5,2542.83 2991.5,2528.17 2991.5,2513.5C 2999.17,2513.5 3006.83,2513.5 3014.5,2513.5C 3014.83,2593.67 3014.5,2673.67 3013.5,2753.5 Z"/></g>
<g><path style="opacity:1" fill="#1b1b1b" d="M 2806.5,2516.5 C 2806.5,2525.17 2806.5,2533.83 2806.5,2542.5C 2799.47,2552.04 2794.64,2562.71 2792,2574.5C 2782.73,2612.24 2787.56,2647.91 2806.5,2681.5C 2806.5,2692.83 2806.5,2704.17 2806.5,2715.5C 2801.81,2710.3 2797.64,2704.63 2794,2698.5C 2767.87,2651.99 2763.2,2603.32 2780,2552.5C 2785.64,2538.04 2794.48,2526.04 2806.5,2516.5 Z"/></g>
<g><path style="opacity:1" fill="#151515" d="M 3034.5,2523.5 C 3055.61,2542.7 3070.45,2566.04 3079,2593.5C 3088.83,2628.8 3090.16,2664.47 3083,2700.5C 3076.73,2734.56 3058.56,2760.06 3028.5,2777C 3011.25,2787.76 2992.41,2792.26 2972,2790.5C 2934.55,2787.31 2898.05,2779.98 2862.5,2768.5C 2866.76,2764.08 2869.09,2758.75 2869.5,2752.5C 2901.58,2763.72 2934.58,2770.72 2968.5,2773.5C 2972.4,2773.35 2976.06,2772.69 2979.5,2771.5C 2981.09,2772.15 2982.75,2772.65 2984.5,2773C 2995.17,2773.67 3005.83,2773.67 3016.5,2773C 3028.1,2770.57 3034.1,2763.4 3034.5,2751.5C 3047.25,2741.56 3056.42,2728.89 3062,2713.5C 3077.78,2663.79 3073.11,2616.12 3048,2570.5C 3043.97,2563.75 3039.47,2557.41 3034.5,2551.5C 3034.5,2542.17 3034.5,2532.83 3034.5,2523.5 Z"/></g>
<g><path style="opacity:1" fill="#151515" d="M 1532.5,2570.5 C 1525.25,2583.34 1518.75,2596.68 1513,2610.5C 1507.32,2631.19 1505.99,2652.19 1509,2673.5C 1511.99,2694.46 1517.32,2714.79 1525,2734.5C 1527.02,2739.22 1529.52,2743.56 1532.5,2747.5C 1532.21,2749.74 1532.54,2751.74 1533.5,2753.5C 1534,2764 1539.33,2770.5 1549.5,2773C 1588.83,2773.5 1628.17,2773.67 1667.5,2773.5C 1672.65,2774.33 1677.98,2774.83 1683.5,2775C 1680.83,2777.67 1678.17,2780.33 1675.5,2783C 1649.03,2801.61 1619.7,2808.28 1587.5,2803C 1574.99,2802.16 1563.66,2798.16 1553.5,2791C 1537,2778.5 1522.5,2764 1510,2747.5C 1500.33,2728.17 1493.67,2707.84 1490,2686.5C 1483.4,2657.63 1484.06,2628.96 1492,2600.5C 1498.63,2573.22 1511.97,2549.89 1532,2530.5C 1532.5,2543.83 1532.67,2557.16 1532.5,2570.5 Z"/></g>
<g><path style="opacity:1" fill="#151515" d="M 1676.5,2714.5 C 1666.5,2714.5 1656.5,2714.5 1646.5,2714.5C 1654.99,2713.67 1663.66,2713.17 1672.5,2713C 1664.43,2687.8 1654.6,2663.3 1643,2639.5C 1633.21,2623.04 1621.88,2607.71 1609,2593.5C 1605.27,2585.71 1601.27,2578.04 1597,2570.5C 1596.5,2585.83 1596.33,2601.16 1596.5,2616.5C 1596.5,2617.83 1596.5,2619.17 1596.5,2620.5C 1596.17,2620.5 1595.83,2620.5 1595.5,2620.5C 1595.5,2603.5 1595.5,2586.5 1595.5,2569.5C 1596.33,2556.67 1596.83,2543.67 1597,2530.5C 1604.79,2537.28 1611.45,2544.95 1617,2553.5C 1624.49,2566.62 1630.82,2580.29 1636,2594.5C 1645.83,2606 1654.5,2618.34 1662,2631.5C 1674.87,2657.75 1685.37,2684.91 1693.5,2713C 1687.65,2713.17 1681.99,2713.67 1676.5,2714.5 Z"/></g>
<g><path style="opacity:1" fill="#232323" d="M 387.5,2532.5 C 397.689,2538.85 406.523,2546.85 414,2556.5C 433.224,2586.31 444.557,2618.98 448,2654.5C 448.993,2663.63 448.326,2672.63 446,2681.5C 445.617,2682.06 445.117,2682.39 444.5,2682.5C 425.107,2632.66 406.107,2582.66 387.5,2532.5 Z"/></g>
<g><path style="opacity:1" fill="#232323" d="M 2214.5,2532.5 C 2195.56,2582.33 2176.22,2632 2156.5,2681.5C 2154.93,2680.32 2154.1,2678.65 2154,2676.5C 2153.61,2672.49 2153.11,2668.49 2152.5,2664.5C 2154.77,2632.09 2163.27,2601.42 2178,2572.5C 2186.51,2555.82 2198.68,2542.49 2214.5,2532.5 Z"/></g>
<g><path style="opacity:1" fill="#232323" d="M 2298.5,2532.5 C 2308.6,2537.83 2317.1,2545.16 2324,2554.5C 2345.83,2587.31 2357.66,2623.48 2359.5,2663C 2359.9,2670.18 2358.9,2677.01 2356.5,2683.5C 2336.89,2633.28 2317.56,2582.94 2298.5,2532.5 Z"/></g>
<g><path style="opacity:1" fill="#232323" d="M 302.5,2534.5 C 283.696,2583.58 264.696,2632.58 245.5,2681.5C 244.414,2681.38 243.747,2680.71 243.5,2679.5C 242.892,2676.85 242.392,2674.19 242,2671.5C 242.39,2634.94 251.39,2600.61 269,2568.5C 277.275,2554.39 288.108,2542.73 301.5,2533.5C 302.107,2533.62 302.44,2533.96 302.5,2534.5 Z"/></g>
<g><path style="opacity:1" fill="#030303" d="M 2302.5,2657.5 C 2271.67,2658.5 2240.67,2658.83 2209.5,2658.5C 2224.7,2616.74 2240.2,2575.07 2256,2533.5C 2272,2574.66 2287.5,2616 2302.5,2657.5 Z"/></g>
<g><path style="opacity:1" fill="#030303" d="M 391.5,2658.5 C 360.329,2658.83 329.329,2658.5 298.5,2657.5C 313.502,2616 329.002,2574.66 345,2533.5C 360.802,2575.07 376.302,2616.74 391.5,2658.5 Z"/></g>
<g><path style="opacity:1" fill="#1b1b1b" d="M 1098.5,2542.5 C 1099.99,2543.31 1100.66,2544.65 1100.5,2546.5C 1099.87,2555.9 1098.7,2565.23 1097,2574.5C 1092.39,2594.43 1088.06,2614.43 1084,2634.5C 1079.2,2649.24 1074.2,2663.91 1069,2678.5C 1067.04,2690.09 1065.87,2701.76 1065.5,2713.5C 1059.31,2713.18 1053.31,2713.51 1047.5,2714.5C 1036.83,2714.5 1026.17,2714.5 1015.5,2714.5C 1018.29,2713.52 1021.29,2713.19 1024.5,2713.5C 1031.17,2713.5 1037.83,2713.5 1044.5,2713.5C 1045.51,2701.44 1047.01,2689.44 1049,2677.5C 1055.26,2662.4 1060.92,2647.06 1066,2631.5C 1069.08,2618.63 1071.41,2605.63 1073,2592.5C 1074.94,2585.52 1076.77,2578.52 1078.5,2571.5C 1078.38,2570.89 1078.04,2570.56 1077.5,2570.5C 1084.5,2561.17 1091.5,2551.83 1098.5,2542.5 Z"/></g>
<g><path style="opacity:1" fill="#222222" d="M 2806.5,2542.5 C 2806.5,2588.83 2806.5,2635.17 2806.5,2681.5C 2787.56,2647.91 2782.73,2612.24 2792,2574.5C 2794.64,2562.71 2799.47,2552.04 2806.5,2542.5 Z"/></g>
<g><path style="opacity:1" fill="#2c2c2c" d="M 2885.5,2526.5 C 2915.7,2530.12 2944.37,2538.79 2971.5,2552.5C 2971.5,2565.83 2971.5,2579.17 2971.5,2592.5C 2954.03,2579.27 2934.7,2569.43 2913.5,2563C 2911.93,2562.24 2910.6,2562.4 2909.5,2563.5C 2901.25,2551.35 2893.25,2539.01 2885.5,2526.5 Z"/></g>
<g><path style="opacity:1" fill="#151515" d="M 905.5,2551.5 C 941.477,2552.31 977.477,2552.81 1013.5,2553C 1012.96,2553.72 1012.29,2554.22 1011.5,2554.5C 995.342,2553.5 979.009,2553.17 962.5,2553.5C 955.5,2553.5 948.5,2553.5 941.5,2553.5C 934.833,2553.5 928.167,2553.5 921.5,2553.5C 920.199,2566.64 918.032,2579.64 915,2592.5C 908.17,2607.16 902.17,2622.16 897,2637.5C 892.667,2655.17 888.333,2672.83 884,2690.5C 880.835,2702.51 880.002,2714.51 881.5,2726.5C 879.466,2736.69 878.966,2747.02 880,2757.5C 881.833,2766 887,2771.17 895.5,2773C 905.494,2773.5 915.494,2773.67 925.5,2773.5C 920.015,2774.33 914.348,2774.83 908.5,2775C 925.012,2788.95 944.179,2795.78 966,2795.5C 991.264,2795.4 1014.43,2788.56 1035.5,2775C 1027.66,2774.83 1019.99,2774.33 1012.5,2773.5C 1025.5,2773.5 1038.5,2773.5 1051.5,2773.5C 1055.31,2774.32 1059.31,2774.82 1063.5,2775C 1058.5,2781.33 1052.83,2787 1046.5,2792C 1023.1,2807.48 997.263,2814.98 969,2814.5C 946.094,2814.97 925.26,2808.81 906.5,2796C 892.939,2784.77 881.106,2771.94 871,2757.5C 866.769,2751.48 864.103,2744.81 863,2737.5C 862.333,2727.83 862.333,2718.17 863,2708.5C 867.72,2684.29 873.387,2660.29 880,2636.5C 885.779,2620.28 892.113,2604.28 899,2588.5C 901.405,2576.06 903.572,2563.73 905.5,2551.5 Z"/></g>
<g><path style="opacity:1" fill="#1b1b1b" d="M 3034.5,2551.5 C 3039.47,2557.41 3043.97,2563.75 3048,2570.5C 3073.11,2616.12 3077.78,2663.79 3062,2713.5C 3056.42,2728.89 3047.25,2741.56 3034.5,2751.5C 3034.5,2742.83 3034.5,2734.17 3034.5,2725.5C 3044.35,2711.12 3050.19,2695.12 3052,2677.5C 3056.81,2644.69 3050.98,2614.02 3034.5,2585.5C 3034.5,2574.17 3034.5,2562.83 3034.5,2551.5 Z"/></g>
<g><path style="opacity:1" fill="#1b1b1b" d="M 941.5,2553.5 C 940.318,2565.26 938.485,2576.93 936,2588.5C 929.391,2603.38 923.058,2618.38 917,2633.5C 912.12,2652.78 907.453,2672.11 903,2691.5C 902.22,2693.39 902.387,2695.05 903.5,2696.5C 895.756,2706.24 888.422,2716.24 881.5,2726.5C 880.002,2714.51 880.835,2702.51 884,2690.5C 888.333,2672.83 892.667,2655.17 897,2637.5C 902.17,2622.16 908.17,2607.16 915,2592.5C 918.032,2579.64 920.199,2566.64 921.5,2553.5C 928.167,2553.5 934.833,2553.5 941.5,2553.5 Z"/></g>
<g><path style="opacity:1" fill="#222222" d="M 941.5,2553.5 C 948.5,2553.5 955.5,2553.5 962.5,2553.5C 960.273,2564.8 958.107,2576.13 956,2587.5C 949.605,2601.29 942.939,2614.96 936,2628.5C 932.228,2638.92 929.394,2649.59 927.5,2660.5C 927.52,2661.73 927.853,2662.73 928.5,2663.5C 920.41,2674.68 912.076,2685.68 903.5,2696.5C 902.387,2695.05 902.22,2693.39 903,2691.5C 907.453,2672.11 912.12,2652.78 917,2633.5C 923.058,2618.38 929.391,2603.38 936,2588.5C 938.485,2576.93 940.318,2565.26 941.5,2553.5 Z"/></g>
<g><path style="opacity:1" fill="#282828" d="M 962.5,2553.5 C 979.009,2553.17 995.342,2553.5 1011.5,2554.5C 984.076,2591.01 956.409,2627.35 928.5,2663.5C 927.853,2662.73 927.52,2661.73 927.5,2660.5C 929.394,2649.59 932.228,2638.92 936,2628.5C 942.939,2614.96 949.605,2601.29 956,2587.5C 958.107,2576.13 960.273,2564.8 962.5,2553.5 Z"/></g>
<g><path style="opacity:1" fill="#222222" d="M 1077.5,2570.5 C 1078.04,2570.56 1078.38,2570.89 1078.5,2571.5C 1076.77,2578.52 1074.94,2585.52 1073,2592.5C 1071.41,2605.63 1069.08,2618.63 1066,2631.5C 1060.92,2647.06 1055.26,2662.4 1049,2677.5C 1047.01,2689.44 1045.51,2701.44 1044.5,2713.5C 1037.83,2713.5 1031.17,2713.5 1024.5,2713.5C 1025.67,2701.8 1027.17,2690.13 1029,2678.5C 1035.26,2664.98 1041.26,2651.31 1047,2637.5C 1050.78,2626.12 1052.94,2614.45 1053.5,2602.5C 1061.12,2591.55 1069.12,2580.88 1077.5,2570.5 Z"/></g>
<g><path style="opacity:1" fill="#1b1b1b" d="M 1532.5,2570.5 C 1532.5,2629.5 1532.5,2688.5 1532.5,2747.5C 1529.52,2743.56 1527.02,2739.22 1525,2734.5C 1517.32,2714.79 1511.99,2694.46 1509,2673.5C 1505.99,2652.19 1507.32,2631.19 1513,2610.5C 1518.75,2596.68 1525.25,2583.34 1532.5,2570.5 Z"/></g>
<g><path style="opacity:1" fill="#1b1b1b" d="M 1646.5,2714.5 C 1629.5,2714.5 1612.5,2714.5 1595.5,2714.5C 1595.5,2683.17 1595.5,2651.83 1595.5,2620.5C 1595.83,2620.5 1596.17,2620.5 1596.5,2620.5C 1596.5,2651.5 1596.5,2682.5 1596.5,2713.5C 1611.5,2713.67 1626.5,2713.5 1641.5,2713C 1634.04,2686.91 1624.21,2661.74 1612,2637.5C 1607.74,2629.75 1602.57,2622.75 1596.5,2616.5C 1596.33,2601.16 1596.5,2585.83 1597,2570.5C 1601.27,2578.04 1605.27,2585.71 1609,2593.5C 1621.88,2607.71 1633.21,2623.04 1643,2639.5C 1654.6,2663.3 1664.43,2687.8 1672.5,2713C 1663.66,2713.17 1654.99,2713.67 1646.5,2714.5 Z"/></g>
<g><path style="opacity:1" fill="#222222" d="M 3034.5,2585.5 C 3050.98,2614.02 3056.81,2644.69 3052,2677.5C 3050.19,2695.12 3044.35,2711.12 3034.5,2725.5C 3034.5,2678.83 3034.5,2632.17 3034.5,2585.5 Z"/></g>
<g><path style="opacity:1" fill="#373737" d="M 2971.5,2592.5 C 2971.67,2614.17 2971.5,2635.84 2971,2657.5C 2950.28,2626.28 2929.78,2594.95 2909.5,2563.5C 2910.6,2562.4 2911.93,2562.24 2913.5,2563C 2934.7,2569.43 2954.03,2579.27 2971.5,2592.5 Z"/></g>
<g><path style="opacity:1" fill="#3b3b3b" d="M 344.5,2590.5 C 351.071,2606.2 357.071,2622.2 362.5,2638.5C 350.833,2638.5 339.167,2638.5 327.5,2638.5C 332.763,2622.38 338.43,2606.38 344.5,2590.5 Z"/></g>
<g><path style="opacity:1" fill="#3b3b3b" d="M 2255.5,2590.5 C 2262.47,2606.07 2268.47,2622.07 2273.5,2638.5C 2261.83,2638.5 2250.17,2638.5 2238.5,2638.5C 2244.17,2622.5 2249.83,2606.5 2255.5,2590.5 Z"/></g>
<g><path style="opacity:1" fill="#696969" d="M 2851.5,2546.5 C 2850.83,2570.5 2850.17,2594.5 2849.5,2618.5C 2849.33,2593.83 2849.5,2569.16 2850,2544.5C 2850.72,2545.04 2851.22,2545.71 2851.5,2546.5 Z"/></g>
<g><path style="opacity:1" fill="#282828" d="M 1053.5,2602.5 C 1052.94,2614.45 1050.78,2626.12 1047,2637.5C 1041.26,2651.31 1035.26,2664.98 1029,2678.5C 1027.17,2690.13 1025.67,2701.8 1024.5,2713.5C 1021.29,2713.19 1018.29,2713.52 1015.5,2714.5C 999.497,2714.67 983.497,2714.5 967.5,2714C 996.03,2676.65 1024.7,2639.48 1053.5,2602.5 Z"/></g>
<g><path style="opacity:1" fill="#222222" d="M 1596.5,2616.5 C 1602.57,2622.75 1607.74,2629.75 1612,2637.5C 1624.21,2661.74 1634.04,2686.91 1641.5,2713C 1626.5,2713.5 1611.5,2713.67 1596.5,2713.5C 1596.5,2682.5 1596.5,2651.5 1596.5,2620.5C 1596.5,2619.17 1596.5,2617.83 1596.5,2616.5 Z"/></g>
<g><path style="opacity:1" fill="#363636" d="M 2870.5,2612.5 C 2891.58,2642.98 2911.91,2673.98 2931.5,2705.5C 2922.57,2703.58 2913.9,2700.74 2905.5,2697C 2893.41,2690.71 2881.74,2683.88 2870.5,2676.5C 2870.5,2655.17 2870.5,2633.83 2870.5,2612.5 Z"/></g>
<g><path style="opacity:1" fill="#888888" d="M 298.5,2657.5 C 329.329,2658.5 360.329,2658.83 391.5,2658.5C 360.331,2659.83 328.997,2659.83 297.5,2658.5C 297.624,2657.89 297.957,2657.56 298.5,2657.5 Z"/></g>
<g><path style="opacity:1" fill="#888888" d="M 2302.5,2657.5 C 2303.04,2657.56 2303.38,2657.89 2303.5,2658.5C 2272,2659.83 2240.67,2659.83 2209.5,2658.5C 2240.67,2658.83 2271.67,2658.5 2302.5,2657.5 Z"/></g>
<g><path style="opacity:1" fill="#282828" d="M 2870.5,2612.5 C 2870.5,2633.83 2870.5,2655.17 2870.5,2676.5C 2870.33,2683.17 2870.5,2689.84 2871,2696.5C 2893.55,2711.72 2918.05,2721.06 2944.5,2724.5C 2948.53,2729.87 2952.19,2735.54 2955.5,2741.5C 2925.05,2738.13 2896.38,2729.13 2869.5,2714.5C 2869.17,2679.12 2869.5,2645.12 2870.5,2612.5 Z"/></g>
<g><path style="opacity:1" fill="#2e2e2e" d="M 2870.5,2676.5 C 2881.74,2683.88 2893.41,2690.71 2905.5,2697C 2913.9,2700.74 2922.57,2703.58 2931.5,2705.5C 2936.19,2711.54 2940.52,2717.87 2944.5,2724.5C 2918.05,2721.06 2893.55,2711.72 2871,2696.5C 2870.5,2689.84 2870.33,2683.17 2870.5,2676.5 Z"/></g>
<g><path style="opacity:1" fill="#292929" d="M 393.5,2721.5 C 384.06,2724.41 374.393,2726.24 364.5,2727C 343.29,2728.59 322.29,2727.25 301.5,2723C 298.475,2722.85 296.809,2721.35 296.5,2718.5C 298.542,2712.08 300.875,2705.75 303.5,2699.5C 330.827,2698.33 358.161,2698.17 385.5,2699C 388.665,2706.33 391.332,2713.83 393.5,2721.5 Z"/></g>
<g><path style="opacity:1" fill="#545454" d="M 2991.5,2613.5 C 2991.83,2649.84 2991.5,2686.17 2990.5,2722.5C 2989.89,2722.38 2989.56,2722.04 2989.5,2721.5C 2990.17,2685.5 2990.83,2649.5 2991.5,2613.5 Z"/></g>
<g><path style="opacity:1" fill="#292929" d="M 2304.5,2720.5 C 2298.67,2723.64 2292.34,2725.48 2285.5,2726C 2264.12,2728.23 2242.79,2727.9 2221.5,2725C 2217.27,2724.07 2213.1,2722.9 2209,2721.5C 2207.97,2721.16 2207.47,2720.5 2207.5,2719.5C 2209.82,2712.85 2212.15,2706.19 2214.5,2699.5C 2242.16,2698.5 2269.83,2698.17 2297.5,2698.5C 2299.83,2705.83 2302.17,2713.17 2304.5,2720.5 Z"/></g>
<g><path style="opacity:1" fill="#222222" d="M 2869.5,2714.5 C 2896.38,2729.13 2925.05,2738.13 2955.5,2741.5C 2959,2745.82 2962,2750.49 2964.5,2755.5C 2931.41,2753.64 2899.74,2745.98 2869.5,2732.5C 2869.5,2726.5 2869.5,2720.5 2869.5,2714.5 Z"/></g>
<g><path style="opacity:1" fill="#222222" d="M 296.5,2718.5 C 296.809,2721.35 298.475,2722.85 301.5,2723C 322.29,2727.25 343.29,2728.59 364.5,2727C 374.393,2726.24 384.06,2724.41 393.5,2721.5C 395.734,2725.52 397.401,2729.86 398.5,2734.5C 397.64,2736.61 395.973,2737.78 393.5,2738C 364.621,2743.19 335.621,2743.86 306.5,2740C 301.609,2739.07 296.776,2737.9 292,2736.5C 290.97,2736.16 290.47,2735.5 290.5,2734.5C 292.325,2729.01 294.325,2723.68 296.5,2718.5 Z"/></g>
<g><path style="opacity:1" fill="#222222" d="M 2207.5,2719.5 C 2207.47,2720.5 2207.97,2721.16 2209,2721.5C 2213.1,2722.9 2217.27,2724.07 2221.5,2725C 2242.79,2727.9 2264.12,2728.23 2285.5,2726C 2292.34,2725.48 2298.67,2723.64 2304.5,2720.5C 2307.07,2725.53 2309.07,2730.86 2310.5,2736.5C 2292.82,2741.13 2274.82,2743.13 2256.5,2742.5C 2245.81,2742.51 2235.14,2742.01 2224.5,2741C 2216.45,2740.23 2208.79,2738.4 2201.5,2735.5C 2202.99,2729.88 2204.99,2724.55 2207.5,2719.5 Z"/></g>
<g><path style="opacity:1" fill="#1b1b1b" d="M 2869.5,2732.5 C 2899.74,2745.98 2931.41,2753.64 2964.5,2755.5C 2967.13,2758.08 2969.3,2761.08 2971,2764.5C 2973.42,2767.42 2976.25,2769.76 2979.5,2771.5C 2976.06,2772.69 2972.4,2773.35 2968.5,2773.5C 2934.58,2770.72 2901.58,2763.72 2869.5,2752.5C 2869.5,2745.83 2869.5,2739.17 2869.5,2732.5 Z"/></g>
<g><path style="opacity:1" fill="#1b1b1b" d="M 290.5,2734.5 C 290.47,2735.5 290.97,2736.16 292,2736.5C 296.776,2737.9 301.609,2739.07 306.5,2740C 335.621,2743.86 364.621,2743.19 393.5,2738C 395.973,2737.78 397.64,2736.61 398.5,2734.5C 401.068,2740.66 403.402,2746.99 405.5,2753.5C 399.129,2755.74 392.462,2757.24 385.5,2758C 358.831,2761.31 332.165,2761.31 305.5,2758C 298.01,2757.07 290.677,2755.57 283.5,2753.5C 285.591,2747 287.925,2740.67 290.5,2734.5 Z"/></g>
<g><path style="opacity:1" fill="#1b1b1b" d="M 2201.5,2735.5 C 2208.79,2738.4 2216.45,2740.23 2224.5,2741C 2235.14,2742.01 2245.81,2742.51 2256.5,2742.5C 2274.82,2743.13 2292.82,2741.13 2310.5,2736.5C 2312.67,2741.68 2314.67,2747.01 2316.5,2752.5C 2316.12,2753.93 2315.12,2754.76 2313.5,2755C 2273.67,2762.73 2234,2762.23 2194.5,2753.5C 2196.46,2747.27 2198.79,2741.27 2201.5,2735.5 Z"/></g>
<g><path style="opacity:1" fill="#151515" d="M 283.5,2753.5 C 290.677,2755.57 298.01,2757.07 305.5,2758C 332.165,2761.31 358.831,2761.31 385.5,2758C 392.462,2757.24 399.129,2755.74 405.5,2753.5C 406.807,2760.07 410.14,2765.41 415.5,2769.5C 404.823,2772.38 393.823,2774.22 382.5,2775C 357.5,2777 332.5,2777 307.5,2775C 295.902,2773.94 284.569,2772.11 273.5,2769.5C 275.836,2768 277.669,2766 279,2763.5C 280.275,2759.96 281.775,2756.62 283.5,2753.5 Z"/></g>
<g><path style="opacity:1" fill="#151515" d="M 2316.5,2752.5 C 2317.93,2755.28 2319.1,2758.28 2320,2761.5C 2321.84,2764.9 2324.34,2767.56 2327.5,2769.5C 2316.46,2772.29 2305.13,2774.13 2293.5,2775C 2268.83,2777 2244.17,2777 2219.5,2775C 2207.56,2774.01 2195.9,2772.18 2184.5,2769.5C 2189.84,2765.48 2193.17,2760.15 2194.5,2753.5C 2234,2762.23 2273.67,2762.73 2313.5,2755C 2315.12,2754.76 2316.12,2753.93 2316.5,2752.5 Z"/></g>
<g><path style="opacity:1" fill="#1b1b1b" d="M 925.5,2773.5 C 954.5,2773.5 983.5,2773.5 1012.5,2773.5C 1019.99,2774.33 1027.66,2774.83 1035.5,2775C 1014.43,2788.56 991.264,2795.4 966,2795.5C 944.179,2795.78 925.012,2788.95 908.5,2775C 914.348,2774.83 920.015,2774.33 925.5,2773.5 Z"/></g>
</svg>
